<?xml version="1.0" encoding="utf-8"?>
<!-- Generator: Adobe Illustrator 23.0.1, SVG Export Plug-In . SVG Version: 6.00 Build 0)  -->
<svg version="1.1" id="Layer_1" xmlns="http://www.w3.org/2000/svg" xmlns:xlink="http://www.w3.org/1999/xlink" x="0px" y="0px"
	 viewBox="0 0 198 55.8" style="enable-background:new 0 0 198 55.8;" xml:space="preserve">
<style type="text/css">
	.st0{fill:#FFFFFF;}
</style>
<g>
	<title>CASALOGO-white-i</title>
	<path class="st0" d="M21.1,35.5c0,0.1-0.1,0.1-0.1,0.1"/>
	<path class="st0" d="M22.5,25.1c0.2,0,0.3-0.1,0.3-0.3c0-0.2-0.1-0.3-0.3-0.3s-0.3,0.1-0.3,0.3l0,0C22.2,25,22.3,25.1,22.5,25.1z"
		/>
	<path class="st0" d="M35.3,13.4h-10v8.1c-0.1,0.7,0.2,1.3,0.8,1.7l3.9,2.3c0.1,0.1,0.2,0.2,0.4,0.2c0.1,0,0.2,0,0.3-0.1l3.9-2.3
		c0.5-0.4,0.8-1,0.8-1.7L35.3,13.4L35.3,13.4z M28.6,15.8h-0.9v-2.1h0.9C28.6,13.7,28.6,15.8,28.6,15.8z M28,16.5l0.1-0.1L28,16.3
		h0.2l0.1-0.2l0.1,0.2h0.2l-0.1,0.1l0.1,0.1h-0.1v0.2l-0.1-0.1l-0.1,0.1v-0.2C28.2,16.5,28,16.5,28,16.5z M25.6,19v-2h1v2H25.6z
		 M25.8,16.2H26V16l0.1,0.2h0.2l-0.1,0.1l0.1,0.1h-0.1v0.2l-0.2,0l-0.1,0.1v-0.2h-0.2l0.1-0.1V16.2L25.8,16.2z M27,18.2h0.2l0.1-0.2
		l0.1,0.2h0.2l-0.1,0.1l0.1,0.1h-0.2v0.2l-0.1-0.1l-0.1,0.1v-0.2H27l0.1-0.1L27,18.2L27,18.2z M27.7,16.6c0-0.1-0.1-0.1-0.1-0.1
		s-0.1,0.1-0.2,0.2s-0.1,0-0.1-0.1s0.1-0.1,0.2-0.1c-0.6,0-0.7,0.3-0.8,0.3s0.1-0.3,0.2-0.4c-0.1,0-0.2-0.2-0.4-0.3
		c0.1-0.1,0.1-0.1,0.2,0c0.1,0.1,0.1-0.1,0.2-0.1s0.2,0.3,0.2,0.3s0-0.3,0.2-0.3S27.9,16.7,27.7,16.6C27.5,16.7,27.7,16.6,27.7,16.6
		L27.7,16.6z M26.9,14.5l0.1-0.1v-0.1h0.2l0.1-0.2l0.1,0.2h0.2l-0.1,0.1l0.1,0.1h-0.2v0.2l-0.1-0.1l-0.1,0.1v-0.2H26.9L26.9,14.5z
		 M26.7,13.7v2.1h-1v-2.1L26.7,13.7z M28.7,24.4L26.3,23c-0.4-0.3-0.6-0.8-0.6-1.3v-2.3h3V24.4L28.7,24.4z M27.8,19.1v-2h0.9v2H27.8
		z M31.7,24.5l-1.1,0.7l0,0c-0.1,0.1-0.2,0.1-0.3,0.1c-0.1,0-0.2,0-0.3-0.1l-1.1-0.6v-5.2h2.8V24.5L31.7,24.5z M31.7,19.1h-2.8v-5.4
		h2.8V19.1L31.7,19.1z M35,21.6c0,0.5-0.2,1-0.7,1.3L32,24.4v-5h3V21.6z M35,19h-3v-5.4h3C35,13.7,35,19,35,19z"/>
	<path class="st0" d="M28.5,21.2c0,0-0.4,0.1-0.3,0.1s0.2-0.3,0.3-0.4s-0.2,0-0.4,0.1c0.6-0.8,0.2-0.5-0.1-0.4
		c0.5-0.5,0.4-0.5,0-0.4c0.3-0.2,0.4-0.5,0.3-0.6c-0.3,0.4-0.5,0.3-0.5,0.6c0,0.3-0.1,0.5-0.2,0.7s0-0.6-0.4-0.6
		c-0.1,0-0.4,0-0.5,0.1c0.1,0,0.2,0.2,0.2,0.3S27,21,26.8,21s-0.3-0.3-0.3-0.4s0-0.1,0-0.3c-0.1-0.4-0.4-0.7-0.7-0.8
		c0,0.2,0.3,0.3,0.3,0.6c-0.1,0-0.3-0.2-0.3-0.1s0.2,0.2,0.2,0.3s-0.2,0-0.2,0.1s0.1,0.1,0.1,0.2c-0.1,0-0.2,0-0.2,0s0,0.1,0.1,0.1
		s0,0.1,0,0.3c0,0.6,0.4,0.9,0.7,0.9s0.2-0.1,0.2-0.2c0,0.1,0.1-0.1,0.1,0.1s-0.2,0.1-0.2,0.3s0.3,0,0.3,0.2c0,0.1,0,0.3,0,0.4
		s0.3-0.1,0.3-0.1s0.1,0.3,0.2,0.3s0.1-0.2,0.2-0.3s0.3,0.2,0.3,0.1c0-0.3-0.1-0.2-0.1-0.4s0.4-0.1,0.4-0.2s-0.1,0-0.1-0.2
		c0,0-0.3-0.5,0.1-0.2S28.6,21.2,28.5,21.2L28.5,21.2z"/>
	<path class="st0" d="M39.2,23.3c0.2,0,0.3-0.1,0.3-0.3c0-0.2-0.1-0.3-0.3-0.3l0,0c-0.2,0-0.3,0.1-0.3,0.3
		C38.9,23.2,39,23.3,39.2,23.3L39.2,23.3z"/>
	<path class="st0" d="M37.8,24.1c0.2,0,0.3-0.1,0.3-0.3c0-0.2-0.1-0.3-0.3-0.3l0,0c-0.2,0-0.3,0.1-0.3,0.3S37.7,24.1,37.8,24.1
		L37.8,24.1z"/>
	<path class="st0" d="M22,25.9c0.2,0,0.3-0.1,0.3-0.3c0-0.2-0.1-0.3-0.3-0.3l0,0c-0.2,0-0.3,0.1-0.3,0.3S21.8,25.9,22,25.9L22,25.9z
		"/>
	<path class="st0" d="M23,26c0.2,0,0.3-0.2,0.2-0.3s-0.2-0.3-0.3-0.2c-0.1,0-0.2,0.1-0.2,0.3C22.7,25.9,22.8,26,23,26L23,26z"/>
	<path class="st0" d="M51.5,12.2c0.5,0.6,0.6,1.5,0.2,2.2c-0.2,0-0.2-0.3-0.2-0.4c-0.4-0.7-0.5-1.5-0.3-2.2
		C51.5,11.7,51.4,12.1,51.5,12.2z"/>
	<path class="st0" d="M9.7,13c-0.1,0.5-0.1,0.9,0,1.4c-0.1,0.1-0.1-0.1-0.2-0.1c-0.7-0.5-0.4-1.5-0.5-2.1c0.1,0,0.1,0,0.2,0
		C9.5,12.4,9.7,12.7,9.7,13L9.7,13z"/>
	<path class="st0" d="M53,13c0.1,0.2-0.1,0.4-0.2,0.5c-0.2,0-0.3,0-0.4-0.2c0-0.2,0-0.4,0.2-0.5C52.7,12.8,52.9,12.9,53,13z"/>
	<path class="st0" d="M8.7,13.8c0,0.2-0.1,0.3-0.2,0.4c-0.1,0-0.3,0-0.3-0.1C8,14,7.9,13.9,8,13.7c0.1-0.1,0.2-0.2,0.3-0.2
		C8.5,13.6,8.6,13.7,8.7,13.8L8.7,13.8z"/>
	<path class="st0" d="M53.7,14.1c0,0.1,0,0.2,0,0.3c-0.1,0.2-0.3,0.2-0.5,0.2c-0.1-0.1-0.2-0.2-0.2-0.3s0.2-0.3,0.3-0.3
		C53.5,13.9,53.6,14,53.7,14.1z"/>
	<path class="st0" d="M52.7,14.1c0.1,0.1,0,0.2,0,0.4s-0.2,0.2-0.4,0.2s-0.2-0.1-0.2-0.2c0-0.2,0.1-0.3,0.2-0.4
		C52.5,14,52.6,14,52.7,14.1L52.7,14.1z"/>
	<path class="st0" d="M51.4,14.4c0,0.2,0,0.4-0.2,0.5c-0.2,0-0.4-0.1-0.4-0.2c0-0.2,0.1-0.4,0.3-0.4C51.2,14.2,51.3,14.3,51.4,14.4z
		"/>
	<path class="st0" d="M10.6,14.5c0,0.2-0.1,0.3-0.2,0.4c-0.1,0-0.3-0.1-0.4-0.2c-0.1-0.1,0-0.2,0.1-0.3s0.3-0.1,0.5,0
		C10.5,14.4,10.5,14.4,10.6,14.5z"/>
	<path class="st0" d="M9.5,14.5c0,0.1-0.1,0.3-0.2,0.3c-0.1,0-0.3,0-0.3-0.1c-0.1-0.1,0-0.3,0.1-0.4l0,0C9.3,14.2,9.5,14.4,9.5,14.5
		L9.5,14.5z"/>
	<path class="st0" d="M47.2,14.6c0.2,0.4,0.3,0.8,0.3,1.3c-0.1,0.3,0,0.8-0.2,1c-0.2-0.1-0.3-0.4-0.4-0.5c-0.2-0.6-0.2-1.3,0.1-1.9
		C47.1,14.3,47.1,14.5,47.2,14.6L47.2,14.6z"/>
	<path class="st0" d="M8.7,14.8c0.1,0.2-0.1,0.3-0.2,0.4S8.1,15.1,8,15c0-0.2,0.1-0.3,0.2-0.4C8.4,14.6,8.6,14.7,8.7,14.8L8.7,14.8z
		"/>
	<path class="st0" d="M50,15.3c0.2,0.5,0.2,1.1,0,1.7l-0.1,0.1c-0.3-0.4-0.5-0.9-0.7-1.4c0-0.3,0.1-0.7,0.2-1c0.1-0.1,0.2,0,0.2,0.1
		C49.6,15,49.7,15.2,50,15.3L50,15.3z"/>
	<path class="st0" d="M52.2,15c0,0.2-0.1,0.4-0.3,0.4c-0.2,0.1-0.3,0-0.4-0.2c0-0.2,0-0.3,0.2-0.4C51.9,14.7,52.1,14.9,52.2,15z"/>
	<path class="st0" d="M9.5,15.5c0,0.2-0.1,0.3-0.3,0.3c-0.1,0.2-0.2,0-0.3,0c-0.1-0.1-0.1-0.3,0-0.4c0-0.1,0.2-0.1,0.3-0.1
		S9.5,15.4,9.5,15.5z"/>
	<path class="st0" d="M10.3,15.5c0.1,0.2-0.1,0.3-0.2,0.4s-0.3-0.1-0.4-0.2c0-0.2,0.1-0.3,0.2-0.4C10.1,15.2,10.2,15.3,10.3,15.5z"
		/>
	<path class="st0" d="M52.7,15.4c0,0.2-0.4,0.5-0.4,0.7c-0.2,0.5-0.6,0.8-1.1,1c-0.1,0.1-0.2,0.2-0.4,0.2c0-0.4,0.3-0.7,0.5-1
		C51.6,15.9,52.1,15.5,52.7,15.4z"/>
	<path class="st0" d="M9.2,16.1c0.2,0.3,0.5,0.6,0.7,0.9c0,0.1,0,0.2-0.1,0.2c-0.9,0-1.4-0.9-1.8-1.5c0.1-0.2,0.3,0,0.4,0
		C8.6,15.9,8.9,15.9,9.2,16.1L9.2,16.1z"/>
	<path class="st0" d="M52.9,16.4c0,0.8-0.4,1.5-1.1,1.9c-0.2,0.1-0.4,0.3-0.6,0.1c0.4-0.7,0.9-1.4,1.5-2H52.9z"/>
	<path class="st0" d="M49.5,16.9c0.1,0.2-0.1,0.4-0.3,0.5c-0.2,0-0.3-0.1-0.4-0.3c0-0.2,0.1-0.3,0.2-0.4c0.1,0,0.1,0,0.2,0
		C49.4,16.7,49.5,16.9,49.5,16.9L49.5,16.9z"/>
	<path class="st0" d="M8.2,17.1c0.3,0.3,0.6,0.5,0.9,0.8c-0.2,0.2-0.5,0-0.8,0c-0.6-0.2-1-0.7-1.6-0.9c0-0.2,0.2-0.1,0.4-0.2
		C7.5,16.8,7.9,16.9,8.2,17.1L8.2,17.1z"/>
	<path class="st0" d="M26.9,11.9c-1-0.4-1.6,0.6-2.6,0.5c-0.1,0.1-0.1,0.2-0.2,0.3s-0.1,0-0.2,0c0-0.4-0.2-0.8-0.2-1.2
		c-0.1-0.2,0-0.4-0.1-0.6c-0.5-1.5,1.4-0.4,1.8-1.3s-0.6-0.9-0.9-1.4V7.9c-0.3-0.3-0.6-0.4-0.8-0.7c0.1-0.4,0.2-0.9,0-1.3
		c0-0.1-0.1-0.2-0.2-0.2c-0.3,0.5-0.6,0.8-0.9,1.3c-0.3-0.3-0.6-0.5-1-0.8c-0.3,0-0.5-0.3-0.8-0.2c0,0.1,0,0.2,0,0.3
		c0,0.7,0.4,1.3,0.9,1.7v0.3c-0.2,0.8-0.3,1.5-0.3,2.3c-0.8,2.1-2.1,3.9-3.8,5.3c-1,1.1-2.2,2.2-2.3,3.8c-0.1,0.2,0,0.5-0.2,0.7
		c-0.6-0.2-1.1-0.5-1.6-0.9c-0.8-0.6-2-0.5-2.5-1.5c-0.2-0.4,0-0.8,0.2-1.1c0.5-0.6,0.6-1.5,0.2-2.2c-0.1,0-0.1,0.1-0.1,0.1
		c-0.1,1-0.9,1.8-0.6,2.9c0.1,0.3,0.2,0.5,0.3,0.9c-0.1,0-0.3,0-0.4-0.1c-0.4-0.1-0.8-0.2-1.2-0.1c-0.8,0.4-1.9-0.1-2.6,0.6
		c-0.1,0-0.2,0-0.2,0.2c0.4,0,0.8,0.1,1.1,0.1c0.6,0.1,1-0.4,1.4-0.6h0.1c0.2-0.2,0.5-0.1,0.7-0.1c1,0.2,2,0.6,2.9,1.2v0.1
		c-0.4,0.1-0.8,0.3-1.1,0.5c-0.5,0.3-0.8,0.7-1,1.2c-0.3,0.4,0.1,0.8,0.3,1.2c0,0.2,0,0.4,0.2,0.5c0.6-0.6,0-1.3,0.1-2
		c0.2-0.5,0.6-0.9,1.1-0.9c1-0.4,1.7,0.4,2.5,0.8c0.1,0.8,0,1.6-0.1,2.4c-0.3,0.1-0.5,0.1-0.8,0.1c-1.4,0.1-2.5,0.9-3.7,1.3
		c-0.6,0.2-1.2,0.2-1.8,0.4c0.4,0.1,0.9,0.1,1.3,0c1.7-0.2,3-1.6,4.9-1.3l0,0c-0.2,0.4-0.5,0.8-0.8,1.1c0-0.2-0.1-0.4-0.2-0.5
		c-0.2-0.1-0.3,0-0.4,0.1c-0.1,0.1-0.1,0.2,0,0.3c0.1,0.1,0.2,0.2,0.4,0.2c0,0.2-0.2,0.2-0.3,0.4c-0.5,0.8-1.5,0.5-2.1,1.1
		c-0.1,0.1-0.4,0.2-0.3,0.4c0.6,0.1,1.3-0.1,1.8-0.5c0.6-0.7,1.3-1.4,2-2.1c0.1,0.6-0.1,1.1-0.4,1.6c-0.1-0.1-0.3-0.2-0.5-0.3
		c-0.2,0-0.3,0.2-0.3,0.4c0.1,0.1,0.1,0.3,0.3,0.4c-0.6,0.3-1.3,0.5-2,0.6c-1.3,0.2-2.5,0.3-3.8,0.3c-0.6,0.1-1.3,0.1-1.9,0
		c-0.7,0.1-1.4-0.1-1.9,0.3c-0.1,0.1,0,0.2,0,0.3c0.8,0.5,1.9,0.1,2.8,0.3H14c0.5,0,1-0.1,1.4-0.3c0.8-0.6,1.5-1.4,1.8-2.3
		c0.2-0.3,0.3-0.7,0.4-1c0.2-0.6,0.7-1,1.3-1.1c0.1,0.9-0.1,1.8-0.3,2.7c-0.1,0.6-0.5,1.1-0.2,1.7c0,0.3,0.4,0.3,0.6,0.3
		c2.1,0,4.2-0.1,6.5,0c0.4,0.1,0.8,0.2,1.2,0.2c0,0,0.2-0.1,0.1-0.2c-0.1-0.2-0.2-0.4-0.4-0.5c0-0.1-0.2-0.1-0.2-0.1
		c-1.1-0.6-2.5-0.3-3.8-0.3c-0.6,0.2-1.3,0.1-1.9-0.2c-0.3-0.3-0.1-1.3-0.1-1.3c0.3-1.2,0.6-2.3,1.1-3.4c0.1-0.3,0.1-0.5,0.1-0.8
		c0.1-0.4,0.1-0.8,0.1-1.2c0.1-0.6,0.3-1.1,0.5-1.6c0.1-0.3,0.2-0.5,0.3-0.8c0.1-0.3,0.2-0.6,0.4-0.9c0.6,0.4,1.1,0.4,1.4,1l0.2,1.5
		c0,0.1,0.1,0.3,0.2,0.2c0.5-0.3,0.3-1,0.3-1.4s-0.3-0.8-0.4-1.3c-0.1-0.1-0.2-0.3-0.3-0.5c-0.1-0.4-0.9-0.7-0.7-1.1
		c0-0.4,0.3-0.8,0.6-1l0.1,0.1l0.2-0.1v-1.5c0.6,0,1.4,0.1,2,0.1c0.2,0.1,0.3,0.2,0.5,0.2l0.1-0.2l1.4-0.3
		C27.9,12.6,27.5,11.9,26.9,11.9L26.9,11.9z"/>
	<path class="st0" d="M28.5,12.5h0.1H28.5z"/>
	<path class="st0" d="M13.2,17.4c0,0.2-0.1,0.3-0.3,0.4c-0.1,0-0.3-0.1-0.3-0.2c-0.1-0.2,0.1-0.3,0.2-0.4S13.2,17.2,13.2,17.4z"/>
	<path class="st0" d="M12.1,17.4c0.1,0.1,0.1,0.3,0.1,0.4c-0.1,0.1-0.3,0.2-0.4,0.1s-0.2-0.2-0.1-0.4S12,17.2,12.1,17.4z"/>
	<path class="st0" d="M36.4,17.6L36.4,17.6"/>
	<path class="st0" d="M49.7,17.9c0.1,0.2-0.1,0.3-0.2,0.4s-0.4-0.1-0.4-0.3c0-0.1,0.1-0.2,0.3-0.3C49.5,17.7,49.6,17.7,49.7,17.9z"
		/>
	<path class="st0" d="M50.6,17.8c0,0.1,0.2,0.2,0,0.3c-0.1,0-0.1,0.1-0.2,0.1c-0.2,0.1-0.4,0-0.4-0.2l0,0c0-0.2,0.1-0.3,0.3-0.4
		S50.5,17.8,50.6,17.8L50.6,17.8z"/>
	<path class="st0" d="M7.7,18c0,0.2-0.2,0.3-0.4,0.2c0,0,0,0-0.1,0c-0.1-0.1-0.1-0.1-0.1-0.2s0-0.2,0.2-0.3
		C7.5,17.7,7.7,17.9,7.7,18z"/>
	<path class="st0" d="M13.6,18.3c0,0.1-0.2,0.3-0.3,0.3c-0.2,0-0.3-0.1-0.4-0.2c0-0.1,0.1-0.3,0.2-0.4C13.3,18,13.5,18.1,13.6,18.3z
		"/>
	<path class="st0" d="M12.6,18.2c0.1,0.1,0.1,0.2,0.1,0.3c-0.1,0.1-0.3,0.2-0.4,0.1S12,18.5,12,18.3c0.1-0.1,0.2-0.2,0.3-0.2
		C12.4,18.1,12.5,18.1,12.6,18.2z"/>
	<path class="st0" d="M53.3,18.4c0,0.1-0.1,0.3-0.2,0.3c-0.1,0.1-0.3,0-0.4-0.1c-0.1,0-0.1-0.2-0.1-0.3c0.1-0.1,0.2-0.2,0.3-0.2
		C53.1,18.2,53.2,18.3,53.3,18.4z"/>
	<path class="st0" d="M54.4,18.6c0,0.2-0.2,0.3-0.3,0.3s-0.3-0.1-0.3-0.2s0.1-0.2,0.2-0.3C54.1,18.3,54.3,18.4,54.4,18.6L54.4,18.6z
		"/>
	<path class="st0" d="M9.7,18.8c0.1,0.2,0,0.4-0.2,0.4l0,0c-0.1,0.1-0.2,0-0.3-0.1s-0.1-0.2-0.1-0.4c0-0.2,0.2-0.1,0.3-0.2
		C9.5,18.6,9.7,18.7,9.7,18.8z"/>
	<path class="st0" d="M10.6,19c0.1,0.1-0.1,0.2-0.1,0.3c-0.1,0.1-0.2,0.1-0.3,0C10,19.2,9.9,19,10,18.9S10.5,18.7,10.6,19L10.6,19z"
		/>
	<path class="st0" d="M52.3,18.9c0,0.2-0.1,0.3-0.2,0.4c-0.2,0-0.3-0.1-0.3-0.2s0.1-0.3,0.2-0.3C52,18.7,52.2,18.8,52.3,18.9z"/>
	<path class="st0" d="M53.7,19.2c0,0.2,0,0.3-0.2,0.4c-0.1,0-0.3,0-0.4-0.1c-0.1,0-0.1-0.2-0.1-0.3c0.1-0.2,0.2-0.2,0.4-0.2
		C53.6,19,53.6,19.1,53.7,19.2z"/>
	<path class="st0" d="M9.1,19.6C9.2,19.7,9,19.8,9,19.8c-0.1,0.1-0.2,0.1-0.4,0c-0.1-0.1-0.1-0.2-0.1-0.3C8.7,19.2,9,19.4,9.1,19.6
		L9.1,19.6z"/>
	<path class="st0" d="M52.6,19.9c0.1,0,0,0.1,0,0.2c-0.4,0.2-1,0.2-1.4,0c-0.2-0.1-0.5-0.3-0.7-0.4c0.1-0.2,0.4-0.2,0.6-0.3
		C51.6,19.4,52,19.9,52.6,19.9L52.6,19.9z"/>
	<path class="st0" d="M9.9,19.7c0,0.1-0.1,0.2-0.1,0.3s-0.2,0.1-0.3,0c-0.2-0.1-0.2-0.3-0.1-0.4l0,0c0.1-0.1,0.3-0.1,0.5,0
		C9.9,19.6,9.9,19.6,9.9,19.7L9.9,19.7z"/>
	<path class="st0" d="M11.4,19.8c0.1,0.2,0,0.3-0.2,0.4c-0.1,0.1-0.2,0-0.3-0.1s-0.2-0.3-0.1-0.4S11.3,19.6,11.4,19.8z"/>
	<path class="st0" d="M31.6,20.6c0,0.4-0.6,0-0.5,0.4s0.2,0.7,0.4,1c0.2,0.2,0.1,0.6,0.1,0.9c-0.2,0.3-0.4,0.4-0.7,0.6
		c-0.5,0-1.2,0.2-1.5-0.4c-0.1-0.3-0.2-0.5-0.3-0.8c0,0,0.1,0,0.2-0.1s-0.1-0.2-0.1-0.3c0.6-0.1-0.2-0.6,0.2-0.6
		c0.4,0.4,1,0.3,1.4,0.7c0.1,0.1,0.1,0.2,0.2,0.2c-0.1-0.4-0.3-0.8-0.3-1.3c0-0.2,0-0.4,0.2-0.6C31.2,20.1,31.4,20.4,31.6,20.6
		L31.6,20.6z"/>
	<path class="st0" d="M13,20.5c0,0.2-0.1,0.3-0.2,0.4s-0.2-0.1-0.3-0.2s0.1-0.3,0.2-0.4C12.8,20.3,12.9,20.4,13,20.5z"/>
	<path class="st0" d="M23.7,20.6c0.2,0.7,0.1,1.4-0.2,2c0,0.1,0,0.4-0.2,0.4c-0.5-0.6-0.1-1.6,0.1-2.2
		C23.4,20.6,23.7,20.5,23.7,20.6L23.7,20.6z"/>
	<path class="st0" d="M38.7,21c0.2,0.5,0.2,1.1,0,1.6l-0.1,0.1c-0.2-0.4-0.3-0.8-0.4-1.2c0.1-0.3,0.2-0.6,0.2-0.9
		C38.6,20.5,38.6,20.9,38.7,21L38.7,21z"/>
	<path class="st0" d="M14.3,21.2c-0.1,0.2-0.4,0.3-0.6,0.4c-0.5,0.3-1,0.4-1.6,0.3c0.4-0.7,1.2-1,2-0.8C14.2,21.1,14.3,21,14.3,21.2
		L14.3,21.2z"/>
	<path class="st0" d="M7.2,21.8c0.5,0.5,0.9,1.1,1.2,1.7c0.1,0.1,0.2,0.1,0.2,0.2s-0.4-0.1-0.6,0c-0.7-0.3-1.1-1.1-1-1.8
		C7,21.8,7.1,21.8,7.2,21.8L7.2,21.8z"/>
	<path class="st0" d="M38,22.3c0,0.2,0,0.4-0.2,0.4c-0.2,0.1-0.3,0-0.4-0.2c0-0.1,0-0.2,0.1-0.3C37.7,22.2,37.9,22.2,38,22.3
		L38,22.3z"/>
	<path class="st0" d="M45.4,23.3c0-0.3,0.1-0.7,0.1-1c0.1-0.1,0.1-0.2,0.1-0.4c0.4-0.6,1.3-0.4,1.9-0.3c0.3,0.1,0.6,0.2,0.9,0.2
		c0.1-0.1,0.3-0.1,0.4-0.1c0.5-0.3,0.2-1,0.2-1.5l-0.2-0.5c-0.1-0.1-0.1-0.2-0.1-0.4c-0.1-0.1-0.2-0.4-0.3-0.5
		C48,18.1,47.6,17.5,47,17c-1-1.1-2.3-1.9-3.7-2.3c-1.4-0.5-2.8,0.1-4,0.6c-0.3-0.1-0.6-0.4-0.7-0.7c-0.1-0.6,0.1-1.3,0.4-1.9
		c0.1-0.4,0.3-0.8,0.5-1.2c0.4-1,0.6-2,0.7-3c0-0.6-0.4-1.1-0.9-1.4C39,7,38.6,7,38.3,7.3c-0.3,0.4-0.7,0.8-1.1,1
		c0,0.3,0.3,0.1,0.5,0.2c0.4,0.1,0.8,0,1.1,0.2c0,0.7-0.3,1.3-0.7,1.8c-0.6,0.9-1.2,1.8-1.6,2.7l-0.1-0.1l0.1,4.3
		c0.5,1,1.3,1.8,2.3,2.3c0.5,0.5,1.2,1,2,0.6c0.4-0.1,0.4,0.4,0.6,0.7c0.2,0.6-0.3,1.1-0.3,1.7l-0.5,1c-0.5,1.1-1.1,2.1-1.8,3
		c-0.3,0-0.4,0.3-0.7,0.3c-0.1,0.2-0.4,0.1-0.6,0.1c-0.5,0.2-1.3,0.1-1.7,0.6l0.1,0.1c1.1,0,2.2,0.1,3.4,0c0.1-0.1,0.3-0.2,0.3-0.3
		c-0.2-0.3,0-0.6,0.2-0.8c0.1-0.4,0.4-0.7,0.5-1.1c0.4-0.7,0.8-1.4,1.2-2.1l0.5-0.9c0.1-0.4,0.3-0.7,0.5-1c0.1-0.1,0.2-0.3,0.3-0.5
		c0-0.2-0.1-0.2-0.2-0.4c0.1-0.1,0.3-0.1,0.5-0.1c0.5,0.2,0.8,0.7,1,1.2l0.2,0.5l0.1,0.2v0.6l0.1,0.5c0,0.9,0,1.7-0.2,2.5
		c-0.3,1-1.5,0.9-2.3,1.1c-0.2,0.1-0.6,0.1-0.6,0.4c1.1,0.1,2.2,0.2,3.3,0.1c0.2-0.1,0.2-0.2,0.3-0.4s0.3-0.4,0.2-0.7s0-0.6-0.1-1
		c0-0.1,0-0.2,0-0.3c0.1-0.5,0.1-1.1,0.2-1.6L45.4,23.3L45.4,23.3z"/>
	<path class="st0" d="M54,22.6c-0.5,0.9-1.2,1.6-2.1,2c-0.1,0-0.2,0-0.2,0c0.6-0.6,0.9-1.6,1.8-1.9C53.7,22.6,53.8,22.6,54,22.6z"/>
	<path class="st0" d="M6.3,23.5c-0.1,0.1,0,0.2-0.2,0.2c-0.1,0.1-0.3,0-0.4-0.2c0-0.2,0.1-0.3,0.2-0.4l0,0
		C6.1,23.2,6.3,23.3,6.3,23.5L6.3,23.5z"/>
	<path class="st0" d="M11.3,23.7c0.1,0.2-0.1,0.2-0.2,0.2c-0.7,0.2-1.5,0-2-0.5c0-0.1,0-0.1,0.1-0.2C9.9,23.4,10.7,23.2,11.3,23.7
		L11.3,23.7z"/>
	<path class="st0" d="M7.3,23.5c0,0.1,0,0.2,0,0.3C7.2,23.9,7,24,6.8,23.9c-0.1,0-0.2-0.1-0.2-0.2c0-0.2,0.1-0.3,0.3-0.3
		C7,23.3,7.1,23.4,7.3,23.5L7.3,23.5z"/>
	<path class="st0" d="M23.6,23.6c0,0.1-0.1,0.3-0.2,0.3s-0.3,0-0.4-0.1c0-0.1,0-0.3,0.1-0.3S23.6,23.4,23.6,23.6z"/>
	<path class="st0" d="M54.6,23.6c0,0.2-0.1,0.3-0.2,0.4s-0.2,0-0.3,0S54,23.8,54,23.7c0.1-0.2,0.2-0.2,0.4-0.2
		C54.5,23.5,54.5,23.6,54.6,23.6z"/>
	<path class="st0" d="M55.8,23.6c0.1,0.1,0,0.3-0.1,0.4s-0.2,0.2-0.3,0.1s-0.2-0.2-0.3-0.3s0.2-0.2,0.3-0.3S55.6,23.6,55.8,23.6z"/>
	<path class="st0" d="M5.6,24.1c0,0.1-0.1,0.2-0.1,0.3s-0.2,0.1-0.3,0.1C5,24.4,5,24.3,4.9,24.2c0-0.2,0.2-0.3,0.3-0.4
		C5.4,23.8,5.5,23.9,5.6,24.1z"/>
	<path class="st0" d="M42.3,24.1c0,0.1,0,0.1,0,0.2c-0.1,0.1-0.2,0.3-0.4,0.2s-0.2-0.2-0.2-0.4c0.1-0.2,0.3-0.2,0.5-0.1
		C42.3,24,42.3,24.1,42.3,24.1L42.3,24.1z"/>
	<path class="st0" d="M8.4,24.3c0,0.1-0.1,0.2-0.2,0.3S8,24.5,7.9,24.4s0-0.3,0.1-0.4c0.2,0,0.3,0.1,0.4,0.2
		C8.4,24.3,8.4,24.3,8.4,24.3z"/>
	<path class="st0" d="M6.7,24.4c0,0.2,0,0.3-0.2,0.4c-0.2,0-0.4-0.1-0.5-0.2c0-0.2,0.1-0.3,0.3-0.4C6.5,24.1,6.6,24.3,6.7,24.4z"/>
	<path class="st0" d="M43.5,24.3c0.1,0.2,0,0.4-0.2,0.4s-0.4-0.1-0.5-0.2c0.1-0.1,0.1-0.3,0.3-0.4C43.3,24.1,43.4,24.2,43.5,24.3z"
		/>
	<path class="st0" d="M7.5,24.4c0.1,0.1,0,0.2-0.1,0.3s-0.1,0.1-0.2,0.1S7,24.6,7,24.5c0-0.2,0.1-0.3,0.2-0.3
		C7.4,24.2,7.5,24.3,7.5,24.4L7.5,24.4z"/>
	<path class="st0" d="M53.7,24.5c-0.1,0.1-0.2,0.2-0.3,0.3c-0.1,0-0.2-0.1-0.3-0.1s0-0.2,0-0.3c0.1-0.2,0.3-0.2,0.5-0.1
		C53.6,24.4,53.7,24.4,53.7,24.5L53.7,24.5z"/>
	<path class="st0" d="M55,24.6c-0.1,0.2-0.2,0.3-0.4,0.3c-0.2-0.1-0.3-0.2-0.2-0.4s0.1-0.1,0.2-0.2C54.8,24.3,54.9,24.4,55,24.6
		L55,24.6z"/>
	<path class="st0" d="M46.7,24.7c0.1,0.2-0.1,0.3-0.3,0.4c-0.1,0-0.2-0.1-0.3-0.1c0-0.2,0.1-0.4,0.2-0.5
		C46.5,24.5,46.6,24.6,46.7,24.7L46.7,24.7z"/>
	<path class="st0" d="M41.9,25c0.1,0,0,0.1,0,0.2s-0.2,0.2-0.4,0.1c-0.1-0.1-0.2-0.2-0.2-0.3C41.4,24.8,41.8,24.8,41.9,25L41.9,25z"
		/>
	<path class="st0" d="M42.9,25.1c0,0.1,0,0.2-0.1,0.3c-0.1,0.1-0.3,0-0.4,0c0-0.1,0-0.2,0-0.3c0.1-0.1,0.1-0.1,0.2-0.1
		C42.7,24.9,42.8,24.9,42.9,25.1L42.9,25.1z"/>
	<path class="st0" d="M13.2,25.1c0.1,0.1,0,0.2,0,0.3c-0.1,0.1-0.3,0.2-0.4,0.1c-0.2-0.1-0.2-0.3-0.1-0.4s0.1-0.2,0.2-0.2
		C13.1,24.9,13.2,25,13.2,25.1L13.2,25.1z"/>
	<path class="st0" d="M48.6,25.2c0,0.2-0.1,0.2-0.3,0.3s-0.3-0.1-0.4-0.2S48,25,48,25C48.2,24.9,48.4,25.1,48.6,25.2L48.6,25.2z"/>
	<path class="st0" d="M47.6,25.2c0.1,0.2-0.1,0.3-0.2,0.4c-0.1,0.1-0.3,0-0.4-0.1c0-0.1,0-0.2,0-0.3s0.2-0.2,0.3-0.2
		C47.4,25,47.5,25,47.6,25.2z"/>
	<path class="st0" d="M55.5,25.4c0,0.2-0.3,0.1-0.4,0.2c-0.8,0.3-1.6,0.2-2.4-0.2c0-0.2,0.3-0.1,0.5-0.2
		C53.9,24.7,54.7,25.3,55.5,25.4L55.5,25.4z"/>
	<path class="st0" d="M7.7,25.2l-0.1,0.1c-0.7,0.4-1.5,0.6-2.2,0.4l-0.1-0.1C6,25.1,6.8,25,7.7,25.2L7.7,25.2L7.7,25.2z"/>
	<path class="st0" d="M50.3,25.3c0,0.1-0.1,0.3-0.2,0.3c-0.2,0.1-0.4,0-0.5-0.2l0,0c0-0.1,0.1-0.3,0.2-0.3S50.3,25.1,50.3,25.3z"/>
	<path class="st0" d="M10.8,25.4c-0.1,0.1,0,0.3-0.2,0.4c-0.2,0-0.4-0.1-0.4-0.2c0-0.2,0.1-0.2,0.2-0.3S10.7,25.2,10.8,25.4z"/>
	<path class="st0" d="M9.6,25.4c0.1,0.1,0,0.2-0.1,0.3c-0.1,0.1-0.2,0.1-0.4,0C9,25.7,9,25.5,9,25.4c0.1-0.1,0.2-0.1,0.3-0.2
		C9.4,25.2,9.6,25.3,9.6,25.4L9.6,25.4z"/>
	<path class="st0" d="M51.6,25.8c0,0.2-0.1,0.3-0.3,0.3c-0.1,0-0.2-0.1-0.3-0.2s0-0.2,0.1-0.3c0,0,0.2,0,0.2-0.1
		C51.5,25.6,51.6,25.7,51.6,25.8L51.6,25.8z"/>
	<path class="st0" d="M8.3,25.7c0,0.1-0.1,0.2-0.1,0.3c-0.1,0.3-0.2,0.5-0.4,0.8c-0.3,0.4-0.8,0.4-1.3,0.5l-0.1-0.1
		C6.9,26.5,7.5,26,8.3,25.7L8.3,25.7L8.3,25.7z"/>
	<path class="st0" d="M50.7,26c0,0.2-0.1,0.2-0.3,0.3c-0.1,0-0.3-0.1-0.3-0.2c0-0.2,0.1-0.3,0.2-0.4C50.5,25.8,50.6,25.9,50.7,26z"
		/>
	<path class="st0" d="M10.3,26C10.3,26,10.3,26.1,10.3,26c0,0.3-0.2,0.3-0.3,0.4c-0.2,0-0.3-0.1-0.4-0.2c-0.1-0.1,0-0.3,0.1-0.4l0,0
		C10,25.9,10.2,25.9,10.3,26L10.3,26z"/>
	<path class="st0" d="M53.9,26.6c0.2,0,0.2-0.2,0.4-0.3c0.2,0,0.3,0,0.4,0.2c0.1,0.2-0.1,0.3-0.2,0.4s-0.4-0.1-0.4,0.1
		c0.1,0.1,0.2,0.2,0.2,0.4c0,0.1-0.2,0-0.2,0c-0.5-0.2-1-0.6-1.2-1.1c-0.1-0.2-0.4-0.3-0.2-0.4C53.2,25.9,53.6,26.2,53.9,26.6
		L53.9,26.6z"/>
	<path class="st0" d="M55.6,26c0.1,0.1,0.1,0.2,0,0.3c-0.1,0.2-0.3,0.1-0.5,0.1s-0.2-0.2-0.1-0.3c0.1-0.1,0.2-0.2,0.3-0.2
		C55.3,25.9,55.5,25.9,55.6,26L55.6,26z"/>
	<path class="st0" d="M49.2,27c0.2,0.2,0.3,0.4,0.4,0.7c0,0-0.1,0-0.2,0c-0.6-0.3-1.4-0.7-1.6-1.4c0-0.1-0.2-0.2-0.2-0.3
		c0.5,0,0.9,0.2,1.2,0.5C49,26.7,49.2,26.8,49.2,27L49.2,27z"/>
	<path class="st0" d="M9.3,26.3c0.1,0.2-0.1,0.3-0.2,0.4c-0.1,0-0.3,0-0.4-0.1c-0.1-0.2,0.1-0.4,0.2-0.4S9.2,26.2,9.3,26.3z"/>
	<path class="st0" d="M51.4,26.7c0,0.1-0.1,0.2-0.2,0.2s-0.3,0.1-0.4,0s-0.1-0.2,0-0.3C51,26.3,51.3,26.5,51.4,26.7L51.4,26.7z"/>
	<path class="st0" d="M55.8,27c0,0.2-0.1,0.4-0.2,0.4c-0.2,0-0.3,0-0.4-0.2c-0.1-0.1,0-0.2,0-0.3c0.1-0.1,0.3-0.2,0.5-0.1
		C55.6,26.9,55.7,26.9,55.8,27z"/>
	<path class="st0" d="M43.7,29.4c0,0.2-0.4,0.1-0.5,0.3C42.6,29.9,42,30,41.4,30v-0.1C42,29.3,42.9,29.1,43.7,29.4z"/>
	<path class="st0" d="M18.2,30.1c0,0.1-0.1,0.3-0.3,0.3c-0.1,0-0.2-0.1-0.3-0.2c-0.1-0.2,0.1-0.3,0.2-0.4C18,29.9,18.2,30,18.2,30.1
		z"/>
	<path class="st0" d="M43.4,30.3c0,0.2-0.1,0.3-0.3,0.4c-0.1,0-0.3,0-0.4-0.1c-0.1-0.1,0-0.2,0-0.3c0.1-0.2,0.3-0.3,0.5-0.2
		C43.3,30.2,43.4,30.2,43.4,30.3L43.4,30.3z"/>
	<path class="st0" d="M46.9,30.4c-0.4,0.3-1,0.6-1.5,0.6h-1l-0.1-0.1C45,30.3,46,30.1,46.9,30.4L46.9,30.4L46.9,30.4z"/>
	<path class="st0" d="M13.4,30.8c0,0.2-0.1,0.3-0.2,0.3c-0.1,0-0.3,0-0.4-0.2c-0.1-0.1,0-0.3,0.1-0.4C13.2,30.5,13.4,30.7,13.4,30.8
		z"/>
	<path class="st0" d="M14.3,31c0,0.1,0,0.1-0.1,0.2s-0.2,0.1-0.3,0s-0.2-0.2-0.1-0.3l0,0c0-0.1,0.1-0.1,0.2-0.2S14.3,30.9,14.3,31z"
		/>
	<path class="st0" d="M7.6,32.8c-0.2,0.2-0.5,0-0.7-0.2c-0.6-0.3-0.6-1-1.2-1.4c0.1-0.2,0.2,0,0.3,0c0.1,0.1,0.2,0.1,0.4,0.2
		C7.1,31.7,7.2,32.3,7.6,32.8L7.6,32.8z"/>
	<path class="st0" d="M58.5,26c-0.3-0.5-0.8-0.8-1.3-0.7c-0.4,0-0.8,0.3-1,0.7c-0.1,0.4,0,0.8,0.3,1c0.1,0.1,0.3,0,0.3-0.1
		c0.1-0.2-0.2-0.2-0.2-0.4c-0.1-0.2,0-0.5,0.2-0.6c0.2-0.2,0.5-0.1,0.7-0.1c0.2,0.1,0.4,0.3,0.5,0.5c0.1,0.3,0.1,0.6,0,0.9
		c-0.2,0.4-0.6,0.8-1.1,0.9c-1.5,0.2-17.3,0.1-17.3,0.1c-1.9,0.2-4-0.4-5.6,0.6c-0.7,0.4-1.1,1.1-1.3,1.9c-0.5,0.4-0.9,0.9-1.4,1.4
		v-0.2c0.1-0.4,0.3-0.8,0.4-1.2c0.3-0.4,0.3-0.8,0.5-1.2c0.6-1.1,1.4-2.1,2.3-2.9c0.4-0.6,1.2-0.5,1.9-0.5c0.8,0.3,1.6,0.5,2.4,0.4
		l0.1-0.1c-0.2-0.2-0.7-0.3-0.9-0.5c-0.7-0.3-1.4,0.1-2.1,0c0,0-0.1,0-0.1-0.1c0.7-0.5,1.4-0.8,2.2-1.1c0.6-0.3,1.2-0.5,1.9-0.8
		c0.3,0,0.5-0.2,0.8-0.1l0.9-0.2c0,0,0.1,0.1,0.1,0c0.9-0.1,1.8-0.1,2.7,0l0.1,0.1l0.8,0.2c0.3,0,0.5,0.4,0.8,0.4
		c0.2-0.2-0.2-0.4-0.3-0.5c0.4-0.1,0.8-0.1,1.2,0.1l-0.2,0.2c-0.1,0.2,0,0.3,0.2,0.4s0.2,0,0.3-0.1c0.2-0.2,0-0.3,0.1-0.5
		c1.3,0.2,2.5,0.6,3.7,1.1c0.3,0.1,0.7,0.4,1,0.3c-0.4-0.3-0.9-0.5-1.3-0.7c-0.3-0.2-0.7-0.2-0.9-0.4c0-0.1,0.2,0,0.2-0.1
		c0.6-0.1,1.2-0.5,1.5-1c0-0.1,0.2-0.1,0.2-0.2s-0.4,0-0.6,0c-0.7,0.1-1,1-1.8,1.2l-2.7-0.6c-0.4,0-0.9-0.1-1.3-0.3l-1-0.1h-1.8
		c0,0-0.1-0.1,0-0.1c0.6-0.2,1.2-0.5,1.8-0.7l4.6-2.1c0.5-0.4,0.9-0.9,1.3-1.4c0-0.1-0.1-0.3-0.2-0.3c-0.1-0.1-0.3,0-0.3,0.1
		c-0.2,0.1,0,0.4,0,0.5c-0.2,0.3-0.5,0.5-0.8,0.7c-0.1,0-4.8,2.2-4.8,2.2c-0.7,0.3-1.4,0.6-2.1,0.8l-1,0.2c-0.1,0.2-0.2,0.3-0.4,0.4
		c-0.3,0.1-0.5,0.2-0.8,0.2c-2.4,0.7-4.6,2-6.4,3.6c0.1-0.2,0.2-0.5,0.2-0.7c0-0.3-0.1-0.5-0.2-0.8c0-0.1-0.2-0.4-0.1-0.5L33,25.3
		c-0.2,0.5-0.3,1-0.1,1.5c0,0.3,0.3,0.7,0.1,1c-0.8,1.1-1.4,2.2-1.9,3.4c-0.2,0-0.3-0.2-0.4-0.4c0.6-0.7,1-1.6,1.2-2.6
		c0.1-0.1,0-0.3,0.2-0.4c0-0.3,0.2-0.6,0-0.8c0.1-0.4-0.5-0.7-0.1-1l-0.3,0.2c-0.8,1,0.4,2.5-0.5,3.4v0.1c-0.2,0.3-0.4,0.6-0.7,0.9
		c-0.4-0.2-0.6-0.6-0.8-1c-0.4-0.5-0.4-1.1-0.2-1.6c0.2-0.5-0.1-1-0.2-1.4l-0.2-0.1c-0.5,0.6-0.6,1.4-0.2,2c0.2,0.3,0.2,0.8,0.5,1
		c0.2,0.5,0.4,0.9,0.8,1.3c0.1,0.2-0.1,0.2-0.2,0.3c-0.2-0.1-0.2-0.4-0.3-0.5c-0.6-1.2-1.3-2.3-2.2-3.2c0-0.2-0.2-0.3-0.1-0.5
		c0.3-0.4,0.4-0.9,0.2-1.3c0-0.1-0.1-0.2-0.1-0.3L27.1,25c0,0.6-0.4,1.2-0.2,1.8l0,0c-1.8-1.4-3.8-2.5-5.8-3.5l-0.2,0.5
		c0.7,0.3,1.3,0.6,1.9,1c0.6,0.3,1.2,0.6,1.7,0.9c2.3,1.4,4,3.5,5,5.9c0,0.2,0.2,0.4,0.1,0.6c-0.4-0.5-0.8-0.9-1.3-1.3
		c-0.1-0.8-0.5-1.6-1.3-2c-0.3-0.4-0.8-0.4-1.3-0.5h-6.4c-5.2-0.1-9.9,0.2-15,0.1c-0.7-0.1-1.6-0.3-1.8-1.1c-0.1-0.3-0.1-0.7,0-1
		c0.2-0.3,0.5-0.5,0.9-0.5C3.7,26,3.9,26.2,4,26.4c0,0.2-0.2,0.4-0.3,0.6s0.1,0.2,0.2,0.2c0.2-0.1,0.4-0.3,0.5-0.6
		c0-0.1,0.1-0.3-0.1-0.4c-0.1-0.4-0.4-0.6-0.8-0.7s-0.9,0.1-1.2,0.4c-0.4,0.4-0.5,1-0.3,1.5c0.3,0.8,1,1.3,1.9,1.4l17,0.1
		c1.7-0.1,3.5,0,5.2,0.1c0.7,0.2,1.2,0.7,1.4,1.3h-0.1c-1.5-0.9-3.3-1.3-5-1c-0.7,0-1.3,0.2-2,0.4c-0.3,0-0.6-0.1-0.9-0.3
		c-0.8-0.5-1.7-0.6-2.5-0.3v0.1c0.9-0.1,1.4,0.7,2.1,0.8c0.2,0,0.3-0.2,0.5,0c-0.8,0.4-1.6,0.8-2.4,1c-0.3,0-0.4-0.3-0.6-0.4
		c-0.3-0.4-0.9-0.2-1.4-0.2c-0.2,0-0.3-0.1-0.4,0c0.2,0.3,0.4,0.5,0.8,0.6c0.4,0.2,1,0,1.3,0.2c-0.1,0.1-0.2,0.2-0.4,0.2
		c-0.8,0.3-1.5,1.1-2.4,1c-0.9,0.1-1.9-0.2-2.6-0.9c-0.3-0.7-1-1.1-1.8-1c-0.1,0-0.1,0-0.1,0.1c0.4,0.2,0.7,0.7,1.1,1s0.7,0,0.9,0.3
		c0.3,0.2,0.7,0.4,1.1,0.5c0.3,0.1,0.6,0.2,0.9,0.2l-0.1,0.1c-1.7,0.5-3.5,0.6-5.2,0.5c-0.5,0-1-0.2-1.6-0.2
		c0.1,0.1,0.3,0.2,0.4,0.2c-0.1,0.1-0.3,0.1-0.5,0.1s-0.4,0.1-0.7,0.2c-0.3,0-0.5,0.1-0.8,0.2c-0.3,0.3-0.6,0.6-1,0.8
		c0,0.1,0,0.2,0.1,0.2c0.3-0.1,0.8,0,1.1-0.2c0.6-0.1,0.9-0.7,1.4-1s1.2-0.4,1.8-0.2c0.4,0.1,0,0.2,0.1,0.5S8.9,34.1,9,34l0.1-0.1
		c0.1-0.1,0.1-0.3,0-0.4c0.2-0.2,0.6,0,0.8-0.1c0.7,0,1.3-0.2,2-0.2c0.1,0,0.2-0.1,0.3,0S12,33.4,12,33.5c0.1,0.1,0.2,0.2,0.4,0.3
		c0.2-0.1,0.3-0.2,0.3-0.4s-0.2-0.1-0.3-0.2c0.4-0.2,0.8-0.2,1.2-0.4c0.3-0.1,0.5-0.1,0.7-0.2c0.2,0,0.4-0.2,0.6-0.1
		c-0.1,0.3-0.2,0.6-0.4,0.8c-0.4,1-0.4,2.1,0,3.1c0.1,0,0.1,0,0.1,0c-0.3-0.9-0.2-2,0.1-2.9c0.2-1.5,1.8-1.9,2.9-2.5l0.1,0.1
		c-0.4,0.8-0.6,1.6-0.7,2.5c0,0.2-0.1,0.3,0,0.4c0.3-0.2,0.5-0.5,0.6-0.8c0.1-0.8-0.3-1.8,0.5-2.4c1.4-0.7,2.9-1.1,4.4-1.3
		c0.1,0,0.2,0,0.2,0.1c-0.3,0.4-0.9,0.8-1,1.2c-0.5,0.9-0.6,2-0.3,3c0.1,0.5-0.3,0.8-0.5,1.3c-0.1,0.2-0.1,0.4-0.2,0.6h0.4
		c0.3-0.3,0.5-0.7,0.6-1.2c0,0.2,0.2,0.3,0.3,0.3c0.1-0.2-0.1-0.3-0.1-0.5c0.3-0.2,0.4,0.2,0.6,0.3c0.3,0.1,0.7,0.2,1.1,0.2l0.1-0.1
		c-0.5-0.5-1.1-0.8-1.8-0.7c-0.3-0.6-0.4-1.3-0.3-2c0.1-0.3,0.2-0.7,0.4-1c0.1-0.3,0.3-0.5,0.5-0.7c0.3-0.3,0.7-0.5,1.1-0.6H24l0,0
		c-0.5,0.4-0.5,0.9-0.8,1.3s-0.4,1-0.2,1.5c0.1,0.2,0,0.6,0.3,0.7c0.2-0.3,0.3-0.7,0.4-1.1c0-0.6-0.4-1.1-0.1-1.7
		c0.2-0.4,0.5-0.7,0.9-0.8c0.9,0,1.8,0.3,2.6,0.8c0.2,0.1,0.5,0.2,0.5,0.5c0,0.8-0.6,1.4-1.4,1.4c-0.3,0-0.6-0.1-0.8-0.3
		c-0.3-0.3-0.4-0.7-0.3-1.1c0.2-0.2,0.5-0.4,0.8-0.3c0.2,0.1,0.3,0.3,0.6,0.2c0.1-0.1,0.1-0.2,0.1-0.3c-0.2-0.1-0.3-0.4-0.5-0.4
		c-0.3-0.1-0.7,0-1,0.2c-0.3,0.3-0.5,0.8-0.4,1.2c0.1,0.5,0.5,1,1.1,1.1c0.8,0.2,1.7-0.1,2.1-0.7c0.2-0.2,0.3-0.5,0.4-0.8
		c0.8,0.6,1.5,1.4,1.8,2.3c0,0.3,0,0.6,0,0.9h0.6c0-0.1,0-0.3,0-0.4c0.3-1.1,0.9-2.1,1.8-2.9c0.3-0.2,0.2,0.2,0.3,0.4
		c0.3,0.7,0.9,1.2,1.6,1.3c0.7,0.2,1.4-0.1,1.9-0.6c0.2-0.4,0.5-1,0.1-1.5c-0.2-0.3-0.6-0.5-1-0.5s-0.8,0.3-1,0.6
		c0,0.1,0,0.3,0.1,0.4s0.2,0,0.3-0.1c0-0.3,0.3-0.4,0.5-0.5s0.4,0,0.6,0.1c0.2,0.2,0.3,0.4,0.2,0.7c0,0.4-0.3,0.7-0.6,0.8
		c-0.6,0.2-1.2,0.2-1.7-0.2c-0.2-0.2-0.4-0.5-0.5-0.8c0-0.3-0.1-0.5,0-0.8c0.8-0.5,1.6-0.8,2.5-0.9c0.4,0.1,0.7,0.3,0.9,0.6
		c0.8,0.8-0.2,2,0.4,2.9c0.2,0,0.2-0.3,0.3-0.5c0.1-0.6,0.1-1.3-0.2-1.9c-0.2-0.4-0.4-0.7-0.7-1c0.1,0,0.1,0,0.2,0
		c0.4,0.2,0.8,0.6,1.1,0.9c0.5,0.9,0.8,1.9,0.7,2.9c-0.1,0.5-0.7,0.8-1.1,1c-0.2,0.1-0.4,0.3-0.5,0.6c0.2,0.1,0.5,0,0.7-0.1
		s0.5-0.5,0.8-0.7v0.1c0,0.2-0.1,0.5,0.1,0.5c0.1-0.3,0.1-0.6,0.2-0.9c0.2,0.2,0.3,0.5,0.4,0.8c0.2,0.3,0.4,0.7,0.8,0.8
		c0.1-0.2,0-0.3,0-0.5c0-0.4-0.4-0.7-0.7-1c-0.6-0.8-0.3-2.2-0.8-3.1c-0.2-0.5-0.5-0.9-0.9-1.3l0.1-0.1c0.8,0,1.6,0.2,2.4,0.4
		c1,0.5,2.3,0.4,2.8,1.6c0.2,0.7,0.5,1.4,1,1.9l0,0c0.1-0.2,0.1-0.4,0-0.7c-0.1-0.9-0.9-1.1-1.3-1.8v-0.1c0.4,0.1,0.9,0.3,1.3,0.4
		c1.4,0.5,2.4,1.7,2.5,3.2c0,1-0.2,2.1-0.6,3c0,0.1-0.3,0.3-0.1,0.4c0.2-0.1,0.2-0.4,0.3-0.5c0.6-1.1,0.8-2.3,0.6-3.5
		c0-0.2-0.3-0.4-0.2-0.6c0.1,0.1,0.2,0.1,0.3,0.2c0.1-0.1,0.3-0.1,0.3-0.2s0.1-0.2,0-0.3s-0.3-0.2-0.5-0.1c-0.1,0.1-0.2,0.2-0.2,0.4
		c-0.2-0.3-0.4-0.7-0.6-0.9v-0.1c0.8,0.3,1.5,0.7,2.3,0.9c0.2,0.1,0.4,0.2,0.6,0.2c0.7,0.2,1.4,0.4,2.2,0.5c0.5,0,1,0.2,1.5,0.1l0,0
		c-0.2-0.2-0.6,0-0.8-0.2c-1.2-0.1-2.3-0.4-3.4-0.9h0.1c0.2,0,0.3-0.2,0.3-0.3c0-0.2-0.2-0.3-0.3-0.3H48c-0.1,0.1-0.2,0.2-0.3,0.3
		c0,0.2,0.1,0.3,0.3,0.3c0,0-0.1,0-0.2,0c-0.5-0.2-1.1-0.5-1.6-0.7c-0.2,0-0.3-0.2-0.5-0.2c-0.4-0.2-0.8-0.4-1.2-0.5
		c-1.2-0.5-2.3-1-3.5-1.3l-1,0l-1.3-0.4c-1.6-0.5-3.3-0.3-4.8,0.4c-0.2-0.1-0.3,0.3-0.4,0c0.5-0.9,1.4-1.4,2.4-1.3
		c7-0.1,13.6-0.1,20.5-0.2c0.8,0.1,1.6-0.3,2-1C58.6,27.1,58.7,26.5,58.5,26z M30.8,32.4c-0.1,0.2-0.2,0.4-0.2,0.6h-0.1
		c0.1-0.3-0.2-0.4-0.1-0.7c-0.1-0.2-0.2-0.5-0.3-0.7c-0.1-0.3,0.1-0.4,0.3-0.6c0.2,0.1,0.3,0.3,0.5,0.5S30.7,32.1,30.8,32.4
		L30.8,32.4z"/>
	<path class="st0" d="M49.7,31.3l0.1,0.1c-0.7,0.5-1.5,0.8-2.3,0.7c-0.1,0-0.1,0.1-0.2,0.1c0,0-0.1-0.1,0-0.1
		C47.8,31.5,48.8,31.1,49.7,31.3L49.7,31.3z"/>
	<path class="st0" d="M46.9,31.6c0.1,0.2-0.1,0.4-0.3,0.5c-0.2,0-0.3-0.1-0.4-0.3c0-0.1,0.1-0.2,0.1-0.3c0.1-0.1,0.3-0.1,0.5,0
		L46.9,31.6z"/>
	<path class="st0" d="M13.7,31.6c0,0.1,0,0.3-0.1,0.4c-0.1,0.1-0.2,0.1-0.3,0.1s-0.2-0.2-0.2-0.3c0-0.1,0.1-0.3,0.2-0.3
		C13.4,31.5,13.6,31.5,13.7,31.6z"/>
	<path class="st0" d="M10.6,32.8L10.6,32.8c-0.4,0.2-0.8,0.1-1.1-0.2c-0.2-0.4-0.5-0.7-0.9-0.9c0-0.1-0.1-0.1,0-0.2
		C9.4,31.6,9.9,32.3,10.6,32.8z"/>
	<path class="st0" d="M52.3,31.6c-0.4,0.6-0.8,1.3-1.5,1.6c-0.1,0-0.2,0.2-0.3,0c0.3-0.7,0.8-1.3,1.5-1.7
		C52.2,31.6,52.3,31.6,52.3,31.6L52.3,31.6z"/>
	<path class="st0" d="M14.7,31.8c0,0.2-0.1,0.2-0.2,0.3s-0.2-0.1-0.3-0.2s0.1-0.2,0.2-0.3C14.5,31.6,14.6,31.7,14.7,31.8z"/>
	<path class="st0" d="M54.5,32c-0.2,0.2-0.1,0.6-0.2,0.8c-0.3,0.4-0.6,0.9-1.2,1c-0.1-0.2,0.1-0.3,0.2-0.5
		C53.5,32.7,53.9,32.2,54.5,32L54.5,32L54.5,32z"/>
	<path class="st0" d="M5.2,32.1c0.1,0.1,0.1,0.3,0,0.4c-0.1,0.1-0.3,0.1-0.4,0.1c-0.1-0.1-0.2-0.3-0.1-0.4C4.7,32,5,31.9,5.2,32.1
		L5.2,32.1z"/>
	<path class="st0" d="M4.2,32.3c0,0.1,0.1,0.2,0,0.2c0,0.1-0.1,0.2-0.2,0.2c-0.2,0-0.3-0.1-0.4-0.2c0-0.1,0-0.3,0.2-0.4
		C3.9,32.1,4,32.2,4.2,32.3L4.2,32.3z"/>
	<path class="st0" d="M6.2,32.4c0,0.1,0.1,0.4-0.1,0.4s-0.4-0.1-0.5-0.2c0-0.1,0.1-0.3,0.2-0.3C5.9,32.3,6.1,32.3,6.2,32.4z"/>
	<path class="st0" d="M9.1,32.7c0,0.1,0,0.3-0.1,0.3s-0.2,0-0.3,0s-0.2-0.2-0.1-0.3c0.1-0.1,0.1-0.1,0.2-0.2
		C8.9,32.5,9,32.5,9.1,32.7L9.1,32.7z"/>
	<path class="st0" d="M56.2,32.8c0,0.1-0.1,0.3-0.3,0.3s-0.3,0-0.4-0.2s0.1-0.3,0.2-0.3S56.2,32.6,56.2,32.8z"/>
	<path class="st0" d="M53,32.9c0,0.1-0.1,0.2-0.2,0.3c-0.1,0.1-0.3,0.1-0.5,0c-0.1-0.1-0.1-0.3,0-0.5c0.1,0,0.1-0.1,0.2-0.1
		C52.7,32.6,52.9,32.7,53,32.9z"/>
	<path class="st0" d="M55.2,32.8c0,0.1-0.1,0.2-0.2,0.3c-0.1,0.1-0.3,0-0.4-0.1c-0.2-0.1,0-0.3,0.1-0.4S55.1,32.6,55.2,32.8z"/>
	<path class="st0" d="M4.7,33.1c0.1,0.2,0,0.4-0.2,0.4s-0.3-0.1-0.4-0.2c0-0.1,0.1-0.3,0.2-0.3C4.5,33,4.6,33,4.7,33.1L4.7,33.1z"/>
	<path class="st0" d="M52.2,33.3c0,0.2-0.1,0.4-0.2,0.5c-0.1,0-0.2,0-0.3-0.1s-0.2-0.3,0-0.4C51.8,33.1,52,33.1,52.2,33.3
		C52.1,33.2,52.2,33.2,52.2,33.3L52.2,33.3z"/>
	<path class="st0" d="M14.1,33.5c0.1,0.2-0.1,0.2-0.2,0.3s-0.2,0-0.3,0s-0.2-0.2-0.1-0.4s0.1-0.1,0.2-0.2S14,33.4,14.1,33.5
		L14.1,33.5z"/>
	<path class="st0" d="M55.9,33.6c0,0.1-0.1,0.2-0.1,0.3C55.7,34,55.6,34,55.4,34c-0.2-0.1-0.2-0.2-0.2-0.4s0.1-0.2,0.2-0.2
		C55.7,33.4,55.8,33.5,55.9,33.6z"/>
	<path class="st0" d="M54.8,33.7c0.1,0.2-0.1,0.3-0.3,0.4s-0.2,0-0.2,0.1c0.4,0.3,0.8,0.6,1.1,0.9v0.1c-0.6,0-1.3-0.2-1.7-0.7
		c-0.1-0.1-0.3-0.1-0.5-0.2c0.2-0.2,0.6-0.1,1-0.2c0.2-0.2-0.3-0.4,0-0.6c0.1,0,0.2-0.1,0.3-0.1C54.7,33.5,54.8,33.6,54.8,33.7
		L54.8,33.7z"/>
	<path class="st0" d="M47.7,33.7c0,0.1-0.1,0.2-0.1,0.3c-0.1,0.1-0.3,0.1-0.4,0.1C47.1,34,47,33.9,47,33.7c0.1-0.2,0.3-0.2,0.5-0.1
		C47.6,33.6,47.7,33.6,47.7,33.7z"/>
	<path class="st0" d="M8.7,34.3c-0.1,0.2-0.1,0.3-0.3,0.3c-0.1,0-0.3-0.1-0.3-0.2c0-0.1,0.1-0.2,0.1-0.3C8.3,34,8.7,34.1,8.7,34.3z"
		/>
	<path class="st0" d="M10.1,34.1c0,0.2-0.3,0.4-0.4,0.6c-0.2,0.6-0.7,1.1-1.4,1.2c-0.1-0.2,0.2-0.3,0.3-0.5
		C9,34.8,9.4,34.4,10.1,34.1L10.1,34.1z"/>
	<path class="st0" d="M47.3,34.3c0,0.2-0.2,0.3-0.3,0.4s-0.3-0.1-0.4-0.1s0-0.3,0-0.4S47.1,34.2,47.3,34.3L47.3,34.3z"/>
	<path class="st0" d="M48.3,34.5c0,0.2-0.1,0.3-0.3,0.4c0,0-0.1,0-0.2,0c-0.1-0.1-0.2-0.2-0.2-0.3c0.1-0.1,0.1-0.2,0.2-0.2
		S48.3,34.3,48.3,34.5L48.3,34.5z"/>
	<path class="st0" d="M12.8,34.4c0,0.2-0.1,0.3-0.3,0.4c-0.1,0-0.3-0.1-0.3-0.2c0-0.2,0.1-0.3,0.2-0.3S12.6,34.3,12.8,34.4z"/>
	<path class="st0" d="M14,34.5c0,0.2-0.2,0.3-0.3,0.3s-0.3-0.1-0.3-0.2s0.1-0.3,0.2-0.3S14,34.3,14,34.5z"/>
	<path class="st0" d="M52.1,35.7c0.1,0.1,0.2,0.2,0.2,0.3c-0.3,0.1-0.5-0.2-0.8-0.2c-0.4-0.4-0.7-0.9-0.9-1.4c0.2-0.2,0.3,0,0.5,0.1
		C51.5,34.8,51.9,35.2,52.1,35.7L52.1,35.7z"/>
	<path class="st0" d="M52.8,34.5c0.1,0.1,0.1,0.3,0,0.4c-0.1,0.2-0.3,0.1-0.5,0.1s-0.2-0.2-0.1-0.4s0.2-0.2,0.3-0.2
		S52.7,34.5,52.8,34.5L52.8,34.5z"/>
	<path class="st0" d="M15.6,35c0,0.1,0.1,0.3-0.1,0.4c-0.2,0-0.4,0-0.4-0.2C15,35,15.2,35,15.3,34.9S15.5,34.9,15.6,35z"/>
	<path class="st0" d="M48.3,36.1c0.3,0.4,0.4,0.8,0.5,1.2c0,0.1,0.1,0.2,0,0.3h-0.1c-0.6-0.6-1.1-1.3-1.3-2.1
		c-0.1,0-0.1-0.1-0.1-0.2c0.2-0.2,0.3,0.2,0.5,0.2L48.3,36.1L48.3,36.1z"/>
	<path class="st0" d="M17.9,35.5L17.9,35.5c-0.7,0.6-1.7,0.7-2.5,0.3c0,0,0-0.1,0.1-0.2c0.5-0.2,1-0.3,1.5-0.3L17.9,35.5L17.9,35.5z
		"/>
	<path class="st0" d="M13.9,35.6c-0.6,0.4-1.1,1.1-1.9,1.3c-0.1,0-0.2,0.2-0.4,0.1c0.4-0.9,1.3-1.5,2.3-1.5
		C13.9,35.5,13.9,35.6,13.9,35.6z"/>
	<path class="st0" d="M47.3,36.4c0,0.1,0,0.3-0.1,0.4c-0.1,0.1-0.2,0.1-0.3,0c-0.2-0.1-0.2-0.2-0.2-0.3s0.2-0.1,0.3-0.2
		S47.2,36.2,47.3,36.4z"/>
	<path class="st0" d="M45.8,36.5c-0.1,0.2-0.4,0.4-0.6,0.5c-0.6,0.1-1.1,0-1.7-0.2c0-0.2,0.2-0.1,0.3-0.2c0.6-0.2,1.2-0.2,1.8-0.1
		H45.8L45.8,36.5z"/>
	<path class="st0" d="M13.9,37c-0.1,0.1-0.1,0.2-0.2,0.3c-0.1,0-0.3,0-0.4-0.1c0-0.1-0.2-0.2-0.1-0.3s0.2-0.2,0.3-0.2
		C13.7,36.7,13.8,36.8,13.9,37z"/>
	<path class="st0" d="M14.9,37.2c-0.1,0.1-0.1,0.3-0.2,0.3c-0.1,0-0.3,0-0.4-0.1c-0.1-0.1-0.1-0.2-0.1-0.3s0.2-0.1,0.2-0.2
		S14.8,37,14.9,37.2z"/>
	<path class="st0" d="M46.9,37.3c0,0.1,0,0.2-0.1,0.3s-0.3,0.1-0.4,0.1c-0.1,0-0.2-0.2-0.2-0.2s0.1-0.2,0.1-0.3
		c0.2-0.1,0.4-0.1,0.5,0.1C46.9,37.3,46.9,37.3,46.9,37.3z"/>
	<path class="st0" d="M47.7,37.3c0,0.1,0.1,0.2,0,0.2s-0.2,0.3-0.4,0.2s-0.2-0.1-0.2-0.1s0-0.4,0.2-0.5S47.6,37.2,47.7,37.3
		L47.7,37.3z"/>
	<path class="st0" d="M14.3,37.8c0,0.2,0,0.4-0.2,0.5c-0.2,0-0.4,0-0.5-0.2s0-0.4,0.2-0.5S14.2,37.6,14.3,37.8z"/>
	<path class="st0" d="M15.3,37.7c0,0.5-0.2,1-0.6,1.4c-0.3,0-0.6,0.3-0.8,0.1v-0.1C14.3,38.7,14.8,38.2,15.3,37.7z"/>
	<path class="st0" d="M44.2,38.1c0.1,0.1-0.1,0.2-0.1,0.3s-0.3,0.1-0.4,0s-0.1-0.2-0.1-0.3s0.1-0.2,0.2-0.2
		C44,37.9,44.1,38,44.2,38.1L44.2,38.1z"/>
	<path class="st0" d="M17,39c0.2,0.4,0.1,1,0.2,1.4c-0.3,0-0.4-0.3-0.6-0.5c-0.3-0.6-0.4-1.2-0.5-1.8h0.1c0.2,0.2,0.5,0.5,0.7,0.7
		C16.9,38.9,17,38.9,17,39L17,39z"/>
	<path class="st0" d="M45.1,38.3c0,0.1-0.2,0.2-0.2,0.3c-0.1,0-0.2-0.1-0.3-0.2c0-0.2,0.1-0.2,0.2-0.3C44.8,38,45,38.1,45.1,38.3
		C45.1,38.2,45.1,38.3,45.1,38.3z"/>
	<path class="st0" d="M47.2,39.8C47.2,39.8,47.2,40,47.2,39.8L47.2,39.8c-0.7-0.3-1.1-0.9-1.1-1.6h0.1C46.6,38.7,47,39.2,47.2,39.8
		L47.2,39.8z"/>
	<path class="st0" d="M45.8,39.3c0,0.1-0.1,0.3-0.2,0.3c-0.2,0-0.5,0-0.5-0.2s0.2-0.3,0.3-0.3C45.6,39,45.8,39.1,45.8,39.3z"/>
	<path class="st0" d="M44.7,39.6c-0.2,0.7-0.9,1-1.4,1.5c-0.1,0,0-0.2,0-0.3c0.2-0.7,0.7-1.3,1.3-1.6C44.9,39.3,44.7,39.5,44.7,39.6
		L44.7,39.6z"/>
	<path class="st0" d="M46,40.2c0,0.2-0.2,0.2-0.2,0.3c-0.1,0-0.3-0.1-0.4-0.2c0-0.2,0.1-0.2,0.2-0.3C45.8,40,45.9,40,46,40.2z"/>
	<path class="st0" d="M33,8.3c0.2,0,0.4,0.2,0.4,0.4S33.2,9.1,33,9.1l0,0h-5.2c-0.2,0-0.4-0.2-0.4-0.4l0,0c0-0.2,0.2-0.4,0.4-0.4H33
		z M29.4,9c0.5,0,0-0.6-0.2-0.6h-0.5c-0.5,0,0,0.6,0.2,0.6H29.4z M31.5,9c0.5,0,0-0.6-0.2-0.6h-0.5c-0.5,0,0,0.6,0.2,0.6H31.5z
		 M33,8.4h-0.2C32.3,8.4,32.7,9,33,9S33.4,8.4,33,8.4z"/>
	<path class="st0" d="M32.5,14.2l1,0.4l1-0.4l-0.4,1.5l0.8-0.2l-0.3,0.9l0.3,0.9L34.2,17l0.3,1.6l-1-0.4l-1,0.4L33,17l-0.8,0.2
		l0.2-0.9l-0.2-0.8l0.8,0.1L32.5,14.2L32.5,14.2z M34,16.8c0.2,0,0.2-0.3,0.2-0.6c0-0.6-0.5,0-0.7-0.6c-0.2,0.5-0.7,0-0.7,0.5
		c0,0.4,0,0.6,0.3,0.6H34V16.8z M33,16.3c0,0.2,0.3,0.1,0.5,0.1s0.5,0.2,0.5-0.1c0-0.3-0.3-0.2-0.5-0.2S33,16,33,16.3z"/>
	<polygon class="st0" points="30.2,16.3 30.2,16.2 30.1,16.1 30.2,16 30.1,15.8 30.3,15.9 30.4,15.7 30.5,15.9 30.7,15.8 30.6,16 
		30.7,16.1 30.5,16.2 30.5,16.3 30.4,16.2 	"/>
	<polygon class="st0" points="29.5,17.3 29.5,17.1 29.3,17.1 29.4,17 29.4,16.8 29.5,16.8 29.6,16.7 29.7,16.8 29.9,16.8 29.8,17 
		30,17.1 29.8,17.1 29.8,17.3 29.6,17.2 	"/>
	<polygon class="st0" points="30.8,17.2 30.8,17 30.6,17 30.7,16.8 30.7,16.7 30.8,16.7 30.9,16.5 31,16.7 31.2,16.7 31.1,16.8 
		31.2,17 31.1,17 31.1,17.2 30.9,17.1 	"/>
	<polygon class="st0" points="30.9,17.9 30.9,17.8 30.8,17.8 30.9,17.7 30.9,17.7 31,17.7 31,17.6 31.1,17.7 31.2,17.7 31.1,17.7 
		31.2,17.8 31.1,17.8 31.1,17.9 31,17.9 	"/>
	<polygon class="st0" points="29.7,18.8 29.7,18.5 29.4,18.4 29.6,18.2 29.5,17.9 29.8,18 30,17.6 30.2,18 30.5,17.9 30.3,18.2 
		30.5,18.4 30.2,18.5 30.2,18.8 30,18.6 	"/>
	<polygon class="st0" points="30.3,2.2 31,3.7 32.5,3.3 31.7,4.7 33,5.6 31.4,5.9 31.5,7.5 30.3,6.4 29.1,7.5 29.2,5.9 27.6,5.6 
		29,4.7 28.2,3.3 29.7,3.7 	"/>
	<path class="st0" d="M24.7,36.1c-0.2,0.1-0.3,0.1-0.2,0.3l0.2,0.9c0.1,0.2,0,0.4-0.1,0.6c-0.2,0.2-0.4,0.3-0.6,0.4
		c-0.2,0.1-0.5,0.1-0.7,0S23,38,22.9,37.8l-0.2-1c0-0.2-0.1-0.2-0.3-0.2v-0.1l1.2-0.3v0.1c-0.2,0.1-0.3,0.1-0.3,0.3l0.2,1
		c0,0.3,0.2,0.5,0.5,0.5h0.1c0.3,0,0.5-0.3,0.5-0.6c0-0.1,0-0.1,0-0.2l-0.2-0.9c0-0.2-0.1-0.3-0.4-0.2v-0.1H24.7L24.7,36.1
		L24.7,36.1z"/>
	<path class="st0" d="M26.4,36.3c-0.2-0.3-0.5-0.4-0.8-0.4c-0.2,0-0.4,0.2-0.3,0.4s0.1,0.2,0.4,0.3l0.6,0.1c0.2,0,0.4,0.2,0.5,0.5
		c0,0.3-0.1,0.7-0.7,0.8c-0.2,0-0.4,0-0.6,0c-0.1,0-0.1,0.1-0.1,0.1h-0.1l-0.2-0.7h0.1c0.1,0.3,0.5,0.5,0.9,0.5
		c0.4-0.1,0.4-0.4,0.4-0.4c0-0.2-0.2-0.2-0.5-0.3h-0.3c-0.6-0.1-0.7-0.4-0.7-0.5s0-0.6,0.6-0.8c0.2,0,0.4,0,0.6,0
		c0.1,0,0.1-0.1,0.1-0.1h0.1l0.1,0.6L26.4,36.3L26.4,36.3z"/>
	<path class="st0" d="M28.7,37.4l-1.3,0.1v-0.1c0.2,0,0.3,0,0.3-0.3l-0.1-1.6c-0.2,0-0.6,0.1-0.6,0.6h-0.1v-0.6l2.1-0.2V36h-0.1
		c-0.1-0.5-0.5-0.5-0.7-0.4l0.1,1.6C28.3,37.4,28.4,37.4,28.7,37.4L28.7,37.4L28.7,37.4z"/>
	<path class="st0" d="M31.7,37.4H31l-0.7-1h-0.1V37c0,0.2,0.1,0.2,0.3,0.3v0.1h-1.2v-0.1c0.2,0,0.3,0,0.3-0.3v-1.3
		c0-0.2-0.1-0.3-0.3-0.3v-0.1h1.1c0.2,0,1,0,1,0.5s-0.4,0.5-0.6,0.5l0.7,0.9C31.6,37.4,31.7,37.4,31.7,37.4L31.7,37.4L31.7,37.4z
		 M30.2,36.4c0.5,0,0.6,0,0.7-0.4c0-0.2-0.1-0.4-0.3-0.4h-0.1c-0.2,0-0.2,0-0.2,0.1L30.2,36.4L30.2,36.4z"/>
	<path class="st0" d="M34,37.8l-1.1-0.2v-0.1c0.2,0,0.3,0,0.3-0.1s-0.1-0.3-0.1-0.4l-0.8-0.1c-0.1,0.1-0.2,0.2-0.2,0.4
		c0,0.1,0.2,0.1,0.3,0.2v0.1l-0.7-0.1v-0.1c0.2,0,0.3-0.1,0.4-0.3l1-1.5h0.1l0.6,1.7C33.8,37.5,33.8,37.6,34,37.8L34,37.8L34,37.8z
		 M33,36.9l-0.3-0.8l-0.4,0.7C32.3,36.8,33,36.9,33,36.9z"/>
	<path class="st0" d="M36.1,38.2l-2-0.4v-0.1c0.2,0,0.3,0,0.3-0.2l0.3-1.4c0-0.2-0.1-0.2-0.3-0.3v-0.1l1.2,0.2V36
		c-0.2,0-0.3,0-0.4,0.2L35,37.7c0,0.1,0,0.2,0.3,0.2c0.4,0.1,0.8-0.1,1-0.4h0.1L36.1,38.2L36.1,38.2z"/>
	<path class="st0" d="M37.5,38.5l-1.2-0.3v-0.1c0.2,0,0.3,0,0.4-0.1l0.3-1.4c0-0.2-0.1-0.2-0.3-0.3v-0.1l1.2,0.3v0.1
		c-0.2,0-0.3-0.1-0.4,0.1l-0.3,1.4C37.2,38.3,37.3,38.3,37.5,38.5L37.5,38.5z"/>
	<path class="st0" d="M39.9,38.8l-1.2-0.1v-0.1c0.2,0,0.3,0,0.3-0.1s0-0.3-0.1-0.4L38.2,38c-0.1,0.1-0.1,0.2-0.2,0.4
		c0,0.1,0.2,0.1,0.3,0.2v0.1l-0.7-0.1v-0.1c0.2,0,0.3-0.1,0.4-0.3l1-1.5l0,0l0.6,1.7C39.8,38.6,39.8,38.7,39.9,38.8L39.9,38.8
		L39.9,38.8z M38.9,38l-0.3-0.8l-0.4,0.7L38.9,38z"/>
	<path class="st0" d="M30.8,14.7c0-0.7-0.4,0-0.6-0.6c-0.2,0.5-0.6,0.1-0.6,0.6c0,0.2,0,0.3,0.2,0.4v0.2c0,0,0,0.1,0.1,0.1l0,0h0.8
		c0.1,0,0.1,0,0.1-0.1l0,0V15C30.8,15,30.8,14.8,30.8,14.7z M30.2,14.8c-0.2,0-0.5,0.1-0.5-0.1s0.2-0.3,0.5-0.3s0.5-0.1,0.5,0.3
		S30.4,14.8,30.2,14.8z"/>
	<path class="st0" d="M37.1,23.5c0.2,0,0.3-0.2,0.2-0.3S37.1,22.9,37,23c-0.1,0-0.2,0.1-0.2,0.3C36.8,23.4,36.9,23.5,37.1,23.5
		L37.1,23.5z"/>
	<path class="st0" d="M35.5,12.9c-0.1,0.1-0.1,0.2-0.2,0.3c0,0.1,0,0.2,0.1,0.2s0.2,0,0.2-0.1v-0.1L35.5,12.9z"/>
	<path class="st0" d="M25,12.9c-0.1,0.1-0.1,0.2-0.2,0.3c0,0.1,0.1,0.2,0.2,0.2s0.2-0.1,0.2-0.2l0,0L25,12.9z"/>
	<path class="st0" d="M27.6,12.9c-0.1,0.1-0.1,0.2-0.1,0.3s0,0.2,0.1,0.2s0.2,0,0.2-0.1v-0.1L27.6,12.9z"/>
	<path class="st0" d="M30.2,12.9c-0.1,0.1-0.1,0.2-0.1,0.3s0,0.2,0.1,0.2s0.2,0,0.2-0.1v-0.1L30.2,12.9z"/>
	<path class="st0" d="M32.9,12.9c-0.1,0.1-0.1,0.2-0.2,0.3c0,0.1,0,0.2,0.1,0.2s0.2,0,0.2-0.1v-0.1L32.9,12.9z"/>
	<path class="st0" d="M25,16.5c0.1,0.1,0.1,0.2,0.2,0.3c0,0.1-0.1,0.2-0.2,0.2s-0.2-0.1-0.2-0.2l0,0L25,16.5z"/>
	<path class="st0" d="M25,20c0.1,0.1,0.1,0.2,0.2,0.3c0,0.1-0.1,0.2-0.2,0.2s-0.2-0.1-0.2-0.2l0,0L25,20z"/>
	<path class="st0" d="M25.4,22.8c0.1,0.1,0.1,0.2,0.2,0.3c0,0.1,0,0.2-0.1,0.2s-0.2,0-0.2-0.1v-0.1L25.4,22.8z"/>
	<path class="st0" d="M27.6,24.3c0.1,0.1,0.1,0.2,0.1,0.3c0,0.1,0,0.2-0.1,0.2s-0.2,0-0.2-0.1v-0.1L27.6,24.3z"/>
	<path class="st0" d="M35.7,16.5c-0.1,0.1-0.1,0.2-0.2,0.3c0,0.1,0,0.2,0.1,0.2s0.2,0,0.2-0.1v-0.1L35.7,16.5z"/>
	<path class="st0" d="M35.7,20c-0.1,0.1-0.1,0.2-0.2,0.3c0,0.1,0,0.2,0.1,0.2s0.2,0,0.2-0.1v-0.1L35.7,20z"/>
	<path class="st0" d="M35.2,22.8c-0.1,0.1-0.1,0.2-0.2,0.3c0,0.1,0,0.2,0.1,0.2s0.2,0,0.2-0.1v-0.1L35.2,22.8z"/>
	<path class="st0" d="M33,24.3c-0.1,0.1-0.1,0.2-0.2,0.3c0,0.1,0,0.2,0.1,0.2s0.2,0,0.2-0.1v-0.1L33,24.3z"/>
	<path class="st0" d="M30.3,25.8c-0.1,0.1-0.1,0.2-0.1,0.3c0,0.1,0,0.2,0.1,0.2s0.2,0,0.2-0.1v-0.1L30.3,25.8z"/>
	<path class="st0" d="M34.6,20.6c0,0,0.1,0.1,0.2,0l0.1-0.3c0,0-0.1-0.1-0.2-0.1c-0.3,0.1-0.6,0.1-0.7,0.4c0,0.2,0.1,0.3,0.3,0.4
		c0.1,0,0.1,0.1,0.2,0.1c0,0.1,0,0.1-0.1,0.1l0,0c-0.2-0.2-0.5,0.1-0.7-0.2c0.1-0.2,0.2-0.5,0-0.8c0,0,0.1-0.1,0-0.1
		c-0.1-0.2-0.3,0-0.5,0s-0.5,0.1-0.6,0.3c0,0.1,0.1,0.2,0.1,0.2c0.1,0,0.1,0,0.1,0.1l-0.2,0.1c0,0.1,0.1,0.1,0.1,0.2
		c-0.1,0-0.2-0.1-0.3-0.2s0-0.4-0.2-0.4H32c0,0.1-0.1,0.2-0.1,0.3c0,0.1,0,0.2,0.1,0.3c0.2,0.2,0.5,0.4,0.6,0.6
		c-0.2,0.3-0.2,0.7-0.5,0.9C32,22.6,32,22.7,32,22.8l0.1,0.1c0.2-0.1,0.6-0.1,0.6-0.5c0.1-0.2,0.2-0.3,0.3-0.4
		c0.2,0,0.3,0.1,0.4,0.2c0,0.2-0.2,0.4-0.5,0.5v0.1c0,0,0.2,0.1,0.3,0c0.3-0.2,0.4-0.5,0.7-0.6c0,0.2-0.3,0.2-0.1,0.4
		c0.2,0,0.3,0,0.5-0.2c-0.1-0.3,0.4-0.4,0.1-0.7c0-0.2,0.3-0.4,0.2-0.6s-0.4-0.3-0.5-0.5C34.4,20.5,34.5,20.5,34.6,20.6L34.6,20.6z"
		/>
	<path class="st0" d="M22.5,23.6c0.2,0,0.3-0.2,0.2-0.3S22.6,23,22.4,23c-0.1,0-0.2,0.1-0.2,0.3C22.2,23.5,22.3,23.6,22.5,23.6
		L22.5,23.6z"/>
	<path class="st0" d="M5.4,33.6c0.2,0,0.3-0.1,0.3-0.3S5.6,33,5.4,33l0,0c-0.2,0-0.3,0.1-0.3,0.3S5.2,33.6,5.4,33.6L5.4,33.6z"/>
	<path class="st0" d="M16.3,36L16.3,36L16.3,36L16.3,36L16.3,36L16.3,36L16.3,36L16.3,36L16.3,36z M16.3,36L16.3,36L16.3,36L16.3,36
		L16.3,36z"/>
	<path class="st0" d="M16.3,36L16.3,36L16.3,36L16.3,36L16.3,36L16.3,36L16.3,36L16.3,36L16.3,36L16.3,36L16.3,36L16.3,36L16.3,36
		L16.3,36L16.3,36L16.3,36L16.3,36z"/>
	<path class="st0" d="M16.5,36L16.5,36L16.5,36L16.5,36L16.5,36L16.5,36L16.5,36L16.5,36L16.5,36L16.5,36L16.5,36L16.5,36L16.5,36
		L16.5,36L16.5,36L16.5,36L16.5,36L16.5,36z"/>
	<path class="st0" d="M16.5,36L16.5,36L16.5,36L16.5,36L16.5,36L16.5,36L16.5,36L16.5,36z M16.5,36L16.5,36L16.5,36L16.5,36L16.5,36
		z"/>
	<path class="st0" d="M16.5,36L16.5,36L16.5,36L16.5,36L16.5,36L16.5,36L16.5,36L16.5,36z"/>
	<path class="st0" d="M36.4,12.4H24.2v9.3c-0.1,0.8,0.3,1.6,1,2l4.7,3c0.1,0.1,0.3,0.2,0.4,0.2s0.3,0,0.4-0.1l4.8-3
		c0.7-0.4,1.1-1.2,1-2L36.4,12.4L36.4,12.4z M36.1,21.9c0,0.6-0.3,1.2-0.8,1.6l-4.6,2.9l0,0c-0.1,0.1-0.2,0.1-0.4,0.1
		c-0.1,0-0.3,0-0.4-0.1l-4.6-2.9c-0.5-0.4-0.8-1-0.8-1.6v-9.1H36C36,12.8,36,21.9,36.1,21.9z"/>
	<path class="st0" d="M32,26l0.2-0.1L32,26z"/>
	<path class="st0" d="M22.8,38.7l-1.1,0.1v-0.1c0.2,0,0.3,0,0.3-0.2c-0.1-0.1-0.1-0.3-0.2-0.4L21,38.2c-0.1,0.1-0.1,0.3-0.1,0.4
		c0,0.1,0.2,0.1,0.3,0.1v0.1L20.4,39v-0.1c0.2,0,0.2-0.2,0.3-0.4l0.6-1.7h0.1l1,1.5C22.6,38.6,22.7,38.7,22.8,38.7L22.8,38.7
		L22.8,38.7z M21.6,38.1l-0.4-0.7L21,38.2L21.6,38.1z"/>
	<path class="st0" d="M42.9,34.3c-0.2-0.5-0.6-0.9-1.2-1.1c-0.5-0.2-1.1,0-1.5,0.4c-0.6,0.5-0.2,1.3-0.2,2c0,0.1,0,0.2-0.1,0.3
		c-2.5-0.2-4.9-0.9-7.4-1.1c-0.6-0.1-1.2-0.1-1.7-0.2l-0.7-0.1c-2.2,0-4.3,0.2-6.4,0.7c-0.4,0.1-0.9,0.2-1.4,0.3
		c-0.3,0-0.6,0.2-0.9,0.1l-0.6,0.1c-0.1,0-0.1,0-0.2,0c-0.3-0.7,0.6-1.2,0.3-1.9c-0.2-0.5-0.7-0.7-1.2-0.7c-0.6,0-1.1,0.2-1.4,0.7
		c-0.4,0.9,0.1,1.8,0.3,2.7c0,0.3,0.3,0.6,0,0.8c-0.6-0.4-1.3-0.6-2-0.4c-0.2,0.1-0.6,0-0.7,0.2c0.8,0.3,1.7,0.4,2.6,0.3
		c0.1-0.1,0.2-0.1,0.3,0c0.1,0.5-0.1,1.1,0.2,1.5c0.3,0.4,0.8,0.6,1.3,0.6c1.5-0.1,3-0.4,4.5-0.9c0.2,0,0.4-0.1,0.6-0.1
		c0.8-0.2,1.7-0.3,2.5-0.3c-0.3,0.5-0.6,1-0.7,1.6c-0.2,0.5,0.4,0.5,0.5,0.8c-0.5,0.2-1,0.5-1.4,0.7c-1,0.1-2.1,0.3-3.1,0.5
		c0,0.2,0.4,0.2,0.4,0.4s-0.2,0.2-0.3,0.3s0,0.1,0.1,0.1c0.1-0.1,0.3,0,0.4-0.2c0.4,0,0.6-0.1,1-0.1c0.3-0.1,0.6-0.2,0.9-0.4
		c0.4-0.1,0.6-0.3,1-0.5s1-0.2,1.5-0.2v0.1c-0.4,0.7-0.8,1.3-1.2,1.9c-0.1,0.1,0,0.2,0.1,0.3c0,0,0,0,0.1,0c0.2,0.1,0.5,0,0.7-0.1
		c0.4-0.6,0.7-1.2,1-1.9c0.2-0.5,0.5-1,1-1.3c0.1,0,0.2-0.1,0.2,0c-0.3,0.4-0.6,0.8-0.8,1.2c-0.2,0.5-0.1,1.1,0.3,1.5
		c0.2,0.2,0.5,0.1,0.8,0.1c0.7-0.3,1.5,0.2,2.1-0.5c0.3,0,0.4,0.3,0.5,0.5s0.6,0.4,0.9,0.2c0-0.2-0.2-0.4-0.3-0.5
		c-0.2-0.4-0.5-0.7-0.7-1c-0.1-0.2-0.2-0.4-0.3-0.7c0.3,0.2,0.6,0.3,0.9,0.4c0.3,0.1,0.7,0.2,1,0.3c0.2,0.3,0.5,0.5,0.9,0.7
		s0.9,0.2,1.4,0.4c0.2,0,0.4,0.2,0.6,0C37.2,43,37.1,43,37,42.9c-0.1-0.2,0.3-0.1,0.4-0.3c0-0.1-0.1-0.1-0.2-0.1
		c-0.2-0.1-0.9-0.2-1-0.3c-0.2,0-0.4-0.1-0.6-0.2c-1,0-1.6-1-2.5-1.3c0.2-0.2,0.5-0.3,0.6-0.6c0.2-0.3,0.2-0.6,0-0.9
		c-0.2-0.5-0.8-0.5-1.2-0.8l0,0c0.6,0,1.3,0.1,1.9,0.2c1.7,0.2,3.2,0.9,5,0.9c1,0,2.2,0.1,2.6-0.9c0.1-0.5,0.2-1.1,0.3-1.6
		C42.5,36.1,43.1,35.3,42.9,34.3L42.9,34.3z M24.1,42.3l-0.2-0.2c0.1-0.2,0.4-0.1,0.6-0.2c0.5-0.2,1-0.3,1.5-0.2
		C25.3,42.1,24.7,42.3,24.1,42.3z M35,42.1c0.6,0.2,1.2,0.4,1.9,0.4c0,0.2-0.5,0-0.4,0.3C35.9,42.7,35.4,42.4,35,42.1
		C34.9,42.1,34.9,42.1,35,42.1z M18.6,34.6c0-0.3,0.2-0.7,0.4-0.9c0.4-0.2,1-0.2,1.4,0c0.1,0.1,0.2,0.2,0.3,0.3
		c0.1,0.3,0,0.6-0.3,0.8h-0.2c0-0.3,0-0.5,0.1-0.8c0-0.2-0.2-0.2-0.3-0.3c-0.3-0.1-0.6,0-0.8,0.2c-0.2,0.2-0.3,0.5-0.2,0.8
		c0.1,0.2,0,0.5,0.1,0.7v0.1C18.8,35.3,18.6,35,18.6,34.6L18.6,34.6z M19.4,35.1c0.3,0.2,0.6,0.1,0.9,0.2c0.1,0.2,0,0.4-0.1,0.6
		c-0.3-0.1-0.7,0-0.8-0.3C19.4,35.4,19.4,35.2,19.4,35.1L19.4,35.1z M19.4,34.5c0-0.1,0-0.3,0.2-0.4s0.3,0,0.3,0.1
		c0,0.2,0,0.4-0.1,0.6C19.6,34.8,19.4,34.7,19.4,34.5z M27.5,40.2c-0.1-0.6,0.1-1.2,0.6-1.6c0.2-0.1,0.5-0.1,0.8,0
		c-0.5,0.1-1,0.2-1.1,0.8c0,0.2,0,0.4,0,0.5s0.6,0.2,0.9,0.5c0,0.1-0.1,0.2-0.1,0.2C28.2,40.5,27.8,40.3,27.5,40.2L27.5,40.2z
		 M26.9,41.4c0.4-0.2,0.9-0.5,1.3-0.4C27.8,41.2,27.4,41.4,26.9,41.4z M28.6,41.5c-0.2,0.6-0.5,1.1-0.9,1.7c0,0.1-0.2,0.1-0.3,0.1
		c0-0.2,0.2-0.4,0.4-0.7c0.3-0.5,0.6-1,0.9-1.4C28.8,41.3,28.6,41.4,28.6,41.5z M29,40.5L29,40.5L29,40.5L29,40.5L29,40.5
		C29.1,40.5,29,40.5,29,40.5L29,40.5z M28.9,40.1c-0.3,0-0.6-0.1-0.8-0.2c-0.2-0.2,0-0.4,0-0.6c0.3-0.4,0.8-0.5,1.2-0.3l0,0
		C29.2,39.4,29.1,39.8,28.9,40.1L28.9,40.1z M29.2,40.1c0.1-0.3,0.1-0.5,0.3-0.7C29.5,39.6,29.4,39.9,29.2,40.1z M29.4,38.6
		c-0.2,0-0.4-0.3-0.6-0.3c0.2-0.1,0.4-0.1,0.7,0C29.6,38.5,29.5,38.6,29.4,38.6L29.4,38.6z M29.6,39.2L29.6,39.2V39l0,0V39.2
		L29.6,39.2z M29.6,40c0-0.1,0-0.2,0-0.2l0.2,0.1C29.8,40,29.7,40,29.6,40z M29.9,38.9c0-0.2,0.1-0.5,0.3-0.7c0.2,0,0.3,0,0.5,0.1
		c0,0.3,0.5,0.8,0,1.1c-0.2,0.1-0.4,0.2-0.6,0.1C29.9,39.4,29.8,39.1,29.9,38.9z M31.2,38.4c0-0.2,0.2,0,0.2-0.1h0.5
		C31.7,38.3,31.3,38.9,31.2,38.4L31.2,38.4z M32,38.6c-0.2,0.1-0.4,0.3-0.6,0.4C31.6,38.8,31.8,38.7,32,38.6z M31.3,39.7L31.3,39.7
		L31.3,39.7L31.3,39.7z M31.3,40.8L31.3,40.8l-0.4-0.2C31.1,40.6,31.3,40.7,31.3,40.8L31.3,40.8z M30.8,40.2h0.1H30.8z M30.6,40
		c0.1-0.1,0.2-0.3,0.3-0.3l0,0C30.8,39.8,30.7,39.9,30.6,40L30.6,40z M30.2,40L30.2,40L30.2,40C30.3,39.9,30.3,40,30.2,40L30.2,40z
		 M30.3,40.7c0.2-0.2,0.4,0.1,0.5,0.3c0.3,0.4,0.9,0.7,0.7,1.3c-0.3,0.3-0.9,0-1.2,0.2c-0.2,0-0.5,0-0.6-0.2
		C29.8,41.8,30,41.2,30.3,40.7z M29.8,41l0.1-0.1c-0.2,0.4-0.3,0.9-0.6,1.3C29.2,41.7,29.7,41.4,29.8,41z M30.6,43
		c-0.3,0-0.8,0.2-1.1-0.1c0-0.1-0.1-0.2-0.1-0.3c0.3-0.1,0.5,0.2,0.8,0c0.4,0,0.8,0,1.2,0c0.2,0.1,0.5-0.3,0.5,0.1
		C31.7,43.2,31,42.8,30.6,43L30.6,43z M31.6,40.5L31.6,40.5L31.6,40.5L31.6,40.5z M31.7,41.6c0,0.2,0.2,0.2,0.1,0.4
		C31.7,41.9,31.7,41.7,31.7,41.6z M32.2,42.6L32.2,42.6c-0.2-0.1-0.1-0.3-0.1-0.4C32.2,42.3,32.3,42.5,32.2,42.6L32.2,42.6z M33,43
		L33,43c-0.5-0.6-0.9-1.3-1.2-2h0.1C32.3,41.7,32.6,42.4,33,43L33,43z M33.7,41.4C33.7,41.5,33.7,41.5,33.7,41.4
		c-0.5,0.1-0.9-0.1-1.2-0.4v-0.1C32.9,41,33.3,41.2,33.7,41.4L33.7,41.4z M33.2,39.1c0.2,0,0.2,0.3,0.2,0.5c0,0.4-0.2,0.7-0.6,0.9
		c-0.2,0.1-0.5,0.1-0.7,0.1c0.4,0,0.8-0.2,1-0.6L33.2,39.1L33.2,39.1z M32.9,39c0.1,0.2,0.2,0.5,0.2,0.8s-0.5,0.3-0.8,0.4
		c-0.1,0-0.3,0-0.4-0.1c0-0.1,0-0.1-0.1-0.2c0-0.2-0.4-0.5-0.1-0.7C32,39,32.6,38.4,32.9,39z M41.7,37.7c-0.1,0.2,0,0.5-0.2,0.6
		c0,0.3-0.3,0.5-0.5,0.6c-2.1,0.5-4.1-0.2-6.1-0.6c-3-0.7-6-0.7-9-0.1c-1.3,0.2-2.6,0.6-3.9,0.9c-0.8,0.2-1.6,0.2-2.5,0
		c-0.6-0.3-0.4-1.1-0.5-1.7c0-0.4-0.1-0.8-0.1-1.2c-0.1-0.1-0.1-0.3-0.1-0.5c0.3,0,0.5,0.2,0.8,0.3c1.4,0.1,2.8,0,4.1-0.4
		c1.3-0.3,2.7-0.5,4-0.6c1.6-0.1,3.1,0,4.7,0.2c0.5,0,0.9,0.1,1.4,0.2c1,0.1,1.9,0.4,2.9,0.5c0.2,0,0.3,0.1,0.5,0.1
		c1.6,0.2,3.3,0.7,4.8,0C41.9,36.5,41.8,37.2,41.7,37.7L41.7,37.7z M41.2,35.6c0,0.3-0.2,0.2-0.4,0.3h-0.4c0-0.2,0-0.3,0-0.5
		C40.7,35.4,41,35.5,41.2,35.6L41.2,35.6z M41,35.2c0.2-0.2,0-1.3,0.5-0.6c0,0.1,0,0.3-0.1,0.5S41.2,35.2,41,35.2z M42.5,35
		c-0.1,0.3-0.4,0.5-0.8,0.6c0-0.4,0.4-0.7,0.3-1.2c-0.3-0.3-0.7-0.5-1.1-0.3c-0.2,0.1-0.1,0.3-0.1,0.4l-0.1,0.6
		c-0.3,0-0.4-0.3-0.5-0.6c0-0.4,0.2-0.7,0.5-0.9s0.7-0.2,1,0c0.2,0,0.5,0.2,0.6,0.4C42.6,34.2,42.5,34.7,42.5,35L42.5,35z"/>
	<path class="st0" d="M70.7,20.7H68l-0.3,0.8c-0.1,0.2-0.1,0.4-0.2,0.6c0,0.2,0.1,0.4,0.3,0.5c0.2,0.1,0.5,0.1,0.8,0.1v0.2H66v-0.2
		c0.3,0,0.5-0.2,0.7-0.3c0.3-0.4,0.5-0.8,0.7-1.2L70,15h0.1l2.8,6.3c0.1,0.4,0.4,0.8,0.7,1.1c0.2,0.1,0.3,0.2,0.5,0.2v0.2h-3.7v-0.2
		h0.2c0.2,0,0.4,0,0.6-0.1c0.1-0.1,0.1-0.2,0.1-0.3c0-0.1,0-0.1,0-0.2c0,0-0.1-0.2-0.2-0.4L70.7,20.7L70.7,20.7z M70.5,20.3
		l-1.1-2.6l-1.2,2.6H70.5z"/>
	<path class="st0" d="M78.8,17.6v4.1c0,0.3,0,0.5,0.1,0.8c0.1,0.1,0.3,0.2,0.5,0.2v0.2h-2.2v-0.7c-0.2,0.3-0.5,0.5-0.8,0.7
		C76.2,23,75.9,23,75.6,23s-0.6-0.1-0.8-0.3c-0.2-0.2-0.4-0.4-0.5-0.6c-0.1-0.4-0.1-0.9-0.1-1.3v-2.1c0-0.3,0-0.5-0.1-0.7
		c-0.1-0.1-0.3-0.2-0.5-0.2v-0.2h2.2v3.6c0,0.2,0,0.5,0,0.7c0,0.1,0.1,0.2,0.2,0.2c0.1,0.1,0.2,0.1,0.3,0.1c0.1,0,0.3,0,0.4-0.1
		c0.2-0.2,0.4-0.4,0.5-0.6v-2.8c0-0.3,0-0.5-0.1-0.7c-0.1-0.1-0.3-0.2-0.5-0.2v-0.2C76.6,17.6,78.8,17.6,78.8,17.6z"/>
	<path class="st0" d="M83.1,17.4l0.1,1.8H83c-0.2-0.4-0.4-0.8-0.7-1.1c-0.2-0.2-0.5-0.3-0.7-0.3c-0.1,0-0.3,0.1-0.4,0.2
		C81,18.1,81,18.2,81,18.3c0,0.1,0,0.2,0.1,0.3c0.3,0.3,0.6,0.6,1,0.8c0.4,0.3,0.8,0.6,1.1,1c0.2,0.3,0.3,0.6,0.3,0.9
		s-0.1,0.6-0.2,0.9s-0.4,0.5-0.6,0.6C82.4,23,82.1,23,81.8,23s-0.7-0.1-1-0.2c-0.1,0-0.1-0.1-0.2-0.1s-0.2,0.1-0.3,0.3H80l-0.1-1.9
		h0.2c0.1,0.4,0.4,0.8,0.7,1.1c0.2,0.2,0.5,0.3,0.8,0.4c0.2,0,0.3-0.1,0.4-0.2s0.2-0.2,0.2-0.4c0-0.2-0.1-0.3-0.2-0.5
		c-0.2-0.2-0.5-0.4-0.8-0.6c-0.4-0.3-0.8-0.6-1.1-0.9c-0.2-0.3-0.4-0.6-0.4-1s0.1-0.8,0.4-1.1c0.3-0.3,0.8-0.5,1.2-0.5
		c0.3,0,0.6,0.1,0.8,0.2c0.1,0.1,0.2,0.1,0.2,0.1c0.1,0,0.1,0,0.2,0c0.1-0.1,0.1-0.2,0.2-0.2L83.1,17.4z"/>
	<path class="st0" d="M85.9,15.6v1.9h1.3v0.6h-1.3v3.3c0,0.2,0,0.4,0,0.6c0,0.1,0.1,0.2,0.2,0.2s0.1,0.1,0.2,0.1
		c0.2,0,0.5-0.2,0.7-0.6l0.2,0.1c-0.2,0.7-0.8,1.1-1.4,1.1c-0.3,0-0.6-0.1-0.9-0.3c-0.2-0.2-0.4-0.4-0.4-0.6c-0.1-0.3-0.1-0.7-0.1-1
		v-3h-0.7v-0.2c0.4-0.3,0.9-0.7,1.2-1.1c0.3-0.4,0.6-0.8,0.9-1.2L85.9,15.6z"/>
	<path class="st0" d="M89.7,17.6v1.2c0.2-0.4,0.6-0.8,0.9-1.1c0.2-0.2,0.5-0.3,0.8-0.3c0.2,0,0.4,0.1,0.5,0.2
		c0.1,0.2,0.2,0.3,0.2,0.5s-0.1,0.4-0.2,0.6c-0.1,0.1-0.3,0.2-0.4,0.2c-0.2,0-0.4-0.1-0.5-0.2l-0.3-0.2h-0.1c-0.1,0-0.2,0-0.3,0.1
		c-0.2,0.1-0.3,0.3-0.3,0.5c-0.1,0.4-0.2,0.8-0.2,1.2V22c0,0.1,0,0.3,0,0.4s0.1,0.2,0.2,0.2c0.1,0.1,0.3,0.1,0.4,0.1v0.2h-2.8v-0.2
		c0.2,0,0.3-0.1,0.5-0.2c0.1-0.3,0.1-0.6,0.1-0.9v-3c0-0.2,0-0.4,0-0.6c0-0.1-0.1-0.2-0.2-0.2c-0.1-0.1-0.2-0.1-0.4-0.1v-0.2
		L89.7,17.6z"/>
	<path class="st0" d="M95,22.1c-0.5,0.5-1.1,0.8-1.7,0.9c-0.3,0-0.6-0.1-0.8-0.3c-0.2-0.2-0.3-0.5-0.3-0.7c0-0.4,0.2-0.8,0.5-1.1
		c0.7-0.5,1.5-1,2.3-1.3V19c0-0.3,0-0.5-0.1-0.8c0-0.1-0.1-0.2-0.2-0.3c-0.1-0.1-0.3-0.1-0.4-0.1c-0.2,0-0.4,0.1-0.6,0.2
		c-0.1,0.1-0.1,0.1-0.1,0.2s0.1,0.2,0.2,0.3c0.1,0.1,0.2,0.3,0.2,0.5s-0.1,0.4-0.2,0.5s-0.3,0.2-0.5,0.2s-0.4-0.1-0.6-0.2
		s-0.2-0.3-0.2-0.5c0-0.3,0.1-0.6,0.3-0.8c0.2-0.3,0.6-0.5,0.9-0.6c0.4-0.1,0.8-0.2,1.2-0.2c0.4,0,0.8,0.1,1.2,0.3
		c0.3,0.2,0.5,0.4,0.6,0.7c0.1,0.4,0.1,0.7,0.1,1.1v2.1c0,0.2,0,0.3,0,0.5c0,0.1,0,0.1,0.1,0.1H97c0.1,0,0.2-0.1,0.3-0.2l0.2,0.1
		c-0.2,0.2-0.4,0.4-0.6,0.6c-0.2,0.1-0.4,0.2-0.7,0.2c-0.3,0-0.5-0.1-0.7-0.2C95.1,22.5,95,22.3,95,22.1L95,22.1z M95,21.7v-1.8
		c-0.4,0.2-0.7,0.5-1,0.9c-0.1,0.2-0.2,0.4-0.2,0.6s0.1,0.3,0.2,0.5c0.1,0.1,0.2,0.2,0.4,0.2C94.6,22,94.8,21.9,95,21.7L95,21.7z"/>
	<path class="st0" d="M99.6,15.2v6.6c0,0.2,0,0.5,0.1,0.7c0.1,0.1,0.3,0.2,0.5,0.2v0.2h-2.9v-0.2c0.2,0,0.4-0.1,0.5-0.2
		c0.1-0.2,0.1-0.5,0.1-0.7v-5.5c0-0.2,0-0.5-0.1-0.7c-0.1-0.1-0.3-0.2-0.5-0.2v-0.2H99.6z"/>
	<path class="st0" d="M102.1,15c0.2,0,0.5,0.1,0.6,0.3c0.4,0.3,0.4,0.9,0.1,1.2c-0.3,0.4-0.9,0.4-1.2,0.1l-0.1-0.1
		c-0.3-0.3-0.3-0.9,0-1.2C101.6,15.1,101.8,15,102.1,15z M102.9,17.6v4.2c0,0.2,0,0.5,0.1,0.7c0.1,0.1,0.3,0.2,0.5,0.2v0.2h-2.9
		v-0.2c0.2,0,0.4-0.1,0.5-0.2c0.1-0.2,0.1-0.5,0.1-0.7v-3.1c0-0.2,0-0.5-0.1-0.7c-0.1-0.1-0.3-0.2-0.5-0.2v-0.2L102.9,17.6z"/>
	<path class="st0" d="M106.6,22.1c-0.5,0.5-1.1,0.8-1.7,0.9c-0.3,0-0.6-0.1-0.8-0.3c-0.2-0.2-0.3-0.5-0.3-0.7c0-0.4,0.2-0.8,0.5-1.1
		c0.7-0.5,1.5-1,2.3-1.3V19c0-0.3,0-0.5-0.1-0.8c0-0.1-0.1-0.2-0.2-0.3c-0.1-0.1-0.3-0.1-0.4-0.1c-0.2,0-0.4,0-0.6,0.2
		c-0.1,0-0.1,0.1-0.2,0.2c0,0.1,0.1,0.2,0.2,0.3c0.1,0.1,0.2,0.3,0.2,0.5s-0.1,0.4-0.2,0.5s-0.3,0.2-0.5,0.2s-0.4-0.1-0.6-0.2
		S104,19.2,104,19c0-0.3,0.1-0.6,0.3-0.8c0.2-0.3,0.6-0.5,0.9-0.6c0.4-0.1,0.8-0.2,1.2-0.2c0.4,0,0.8,0.1,1.2,0.3
		c0.3,0.2,0.5,0.4,0.6,0.7c0.1,0.4,0.1,0.7,0.1,1.1v2.1c0,0.2,0,0.3,0,0.5c0,0.1,0,0.1,0.1,0.1h0.1c0.1,0,0.2-0.1,0.3-0.2l0.2,0.1
		c-0.2,0.2-0.4,0.4-0.6,0.6c-0.2,0.1-0.4,0.2-0.7,0.2c-0.3,0-0.5-0.1-0.7-0.2C106.7,22.5,106.6,22.3,106.6,22.1L106.6,22.1z
		 M106.6,21.7v-1.8c-0.4,0.2-0.7,0.5-1,0.9c-0.1,0.2-0.2,0.4-0.2,0.6s0.1,0.3,0.2,0.5c0.1,0.1,0.2,0.2,0.4,0.2
		C106.2,22,106.4,21.9,106.6,21.7L106.6,21.7z"/>
	<path class="st0" d="M111.2,17.6v0.7c0.2-0.3,0.5-0.5,0.8-0.6c0.2-0.1,0.5-0.2,0.8-0.2s0.6,0.1,0.9,0.3c0.2,0.2,0.4,0.4,0.4,0.7
		c0.1,0.4,0.1,0.8,0.1,1.2v2.1c0,0.3,0,0.5,0.1,0.8c0.1,0.1,0.3,0.2,0.5,0.2V23h-2.7v-0.2c0.2,0,0.3-0.1,0.4-0.2
		c0.1-0.2,0.1-0.5,0.1-0.7v-2.4c0-0.3,0-0.5,0-0.8c0-0.1-0.1-0.2-0.2-0.3c-0.1-0.1-0.2-0.1-0.3-0.1c-0.3,0-0.6,0.2-0.9,0.7v2.8
		c0,0.3,0,0.5,0.1,0.8c0.1,0.1,0.3,0.2,0.4,0.2V23H109v-0.2c0.2,0,0.4-0.1,0.5-0.2c0.1-0.2,0.1-0.5,0.1-0.7v-3c0-0.3,0-0.5-0.1-0.7
		c-0.1-0.1-0.3-0.2-0.5-0.2v-0.2L111.2,17.6z"/>
	<path class="st0" d="M125.2,15v2.7H125c-0.2-0.7-0.6-1.3-1.2-1.7c-0.5-0.4-1.1-0.6-1.7-0.6c-0.5,0-1,0.2-1.4,0.5
		c-0.4,0.4-0.7,0.8-0.8,1.3c-0.2,0.6-0.2,1.2-0.2,1.8c0,0.7,0.1,1.3,0.3,2c0.1,0.5,0.4,0.9,0.8,1.2c0.4,0.3,0.9,0.4,1.4,0.4
		c0.2,0,0.4,0,0.6-0.1c0.2,0,0.4-0.1,0.6-0.2v-1.6c0-0.2,0-0.4-0.1-0.6c-0.1-0.1-0.2-0.2-0.3-0.2c-0.1-0.1-0.3-0.1-0.5-0.1h-0.2
		v-0.2h3.7v0.2c-0.2,0-0.4,0-0.6,0.1c-0.1,0.1-0.2,0.2-0.3,0.3c0,0.2,0,0.3,0,0.5v1.6c-0.5,0.2-1,0.4-1.5,0.5s-1.1,0.2-1.7,0.2
		s-1.2-0.1-1.8-0.3c-0.5-0.2-0.9-0.5-1.3-0.8s-0.6-0.7-0.9-1.1c-0.3-0.5-0.4-1.1-0.4-1.8c0-1.1,0.4-2.2,1.2-2.9
		c0.8-0.8,1.9-1.2,3.1-1.2c0.3,0,0.7,0,1,0.1s0.5,0.2,0.8,0.3c0.2,0.1,0.4,0.2,0.7,0.2c0.1,0,0.2,0,0.3-0.1c0.1-0.1,0.2-0.3,0.3-0.5
		h0.3V15z"/>
	<path class="st0" d="M128.9,17.4c0.5,0,0.9,0.1,1.3,0.4c0.4,0.2,0.7,0.6,0.9,1c0.2,0.5,0.3,0.9,0.3,1.4c0,0.7-0.2,1.3-0.6,1.9
		c-0.4,0.6-1.2,1-1.9,0.9c-0.7,0-1.4-0.3-1.8-0.8c-0.4-0.6-0.7-1.2-0.7-2c0-0.7,0.2-1.4,0.7-2C127.5,17.7,128.2,17.4,128.9,17.4
		L128.9,17.4z M128.9,17.8c-0.2,0-0.4,0.1-0.5,0.2c-0.2,0.3-0.3,0.6-0.3,0.9c-0.1,0.6-0.1,1.2-0.1,1.8c0,0.4,0,0.8,0.1,1.1
		c0,0.2,0.1,0.4,0.3,0.6c0.1,0.1,0.3,0.2,0.5,0.2s0.3,0,0.4-0.1c0.2-0.1,0.3-0.3,0.3-0.5c0.1-0.7,0.1-1.5,0.1-2.2
		c0-0.4,0-0.9-0.1-1.3c0-0.2-0.2-0.4-0.3-0.5C129.2,17.9,129,17.8,128.9,17.8L128.9,17.8z"/>
	<path class="st0" d="M133.9,23l-1.8-4.1c-0.1-0.3-0.3-0.7-0.5-0.9c-0.1-0.1-0.2-0.2-0.4-0.2v-0.2h2.8v0.2c-0.1,0-0.3,0-0.4,0.1
		c-0.1,0.1-0.1,0.2-0.1,0.3c0,0.3,0.1,0.5,0.2,0.8l0.9,2l0.7-1.7c0.2-0.3,0.3-0.7,0.3-1c0-0.1,0-0.2-0.1-0.3
		c-0.1-0.1-0.3-0.1-0.4-0.1v-0.2h1.7v0.2c-0.2,0-0.3,0.1-0.4,0.2c-0.2,0.3-0.4,0.6-0.5,0.9l-1.8,4.1L133.9,23L133.9,23z"/>
	<path class="st0" d="M141,20h-2.9c0,0.6,0.2,1.2,0.6,1.7c0.2,0.3,0.6,0.5,0.9,0.5c0.2,0,0.4-0.1,0.6-0.2c0.2-0.2,0.4-0.4,0.6-0.7
		l0.2,0.1c-0.2,0.5-0.5,0.9-0.9,1.2c-0.4,0.2-0.8,0.4-1.2,0.4c-0.7,0-1.4-0.3-1.8-0.9c-0.3-0.5-0.5-1.2-0.5-1.8
		c0-0.8,0.2-1.5,0.7-2.1c0.4-0.5,1-0.8,1.7-0.8c0.5,0,1.1,0.2,1.4,0.7C140.8,18.6,141,19.3,141,20L141,20z M139.6,19.6
		c0-0.4,0-0.8-0.1-1.2c-0.1-0.2-0.2-0.4-0.3-0.5s-0.2-0.1-0.3-0.1c-0.2,0-0.4,0.1-0.5,0.3c-0.2,0.4-0.4,0.9-0.3,1.4v0.2L139.6,19.6
		L139.6,19.6z"/>
	<path class="st0" d="M143.5,17.6v1.2c0.2-0.4,0.6-0.8,0.9-1.1c0.2-0.2,0.5-0.3,0.8-0.3c0.2,0,0.4,0.1,0.5,0.2s0.2,0.3,0.2,0.5
		s-0.1,0.4-0.2,0.6c-0.1,0.1-0.3,0.2-0.4,0.2c-0.2,0-0.4-0.1-0.5-0.2l-0.3-0.2h-0.1c-0.1,0-0.2,0-0.3,0.1c-0.2,0.1-0.3,0.3-0.4,0.5
		c-0.1,0.4-0.2,0.8-0.2,1.2V22c0,0.1,0,0.3,0,0.4s0.1,0.2,0.2,0.2c0.1,0.1,0.3,0.1,0.4,0.1v0.2h-2.9v-0.2c0.2,0,0.3-0.1,0.5-0.2
		c0.1-0.3,0.1-0.6,0.1-0.9v-3c0-0.2,0-0.4,0-0.6c0-0.1-0.1-0.2-0.2-0.2c-0.1-0.1-0.2-0.1-0.4-0.1v-0.2L143.5,17.6z"/>
	<path class="st0" d="M148.4,17.6v0.7c0.2-0.3,0.5-0.5,0.8-0.6c0.2-0.1,0.5-0.2,0.8-0.2s0.6,0.1,0.9,0.3c0.2,0.2,0.4,0.4,0.4,0.7
		c0.1,0.4,0.1,0.8,0.1,1.2v2.1c0,0.3,0,0.5,0.1,0.8c0.1,0.1,0.3,0.2,0.5,0.2V23h-2.7v-0.2c0.2,0,0.3-0.1,0.4-0.2
		c0.1-0.2,0.1-0.5,0.1-0.7v-2.4c0-0.3,0-0.5-0.1-0.8c0-0.1-0.1-0.2-0.2-0.3c-0.1-0.1-0.2-0.1-0.3-0.1c-0.3,0-0.6,0.2-0.9,0.7v2.8
		c0,0.3,0,0.5,0.1,0.8c0.1,0.1,0.2,0.2,0.4,0.2V23h-2.7v-0.2c0.2,0,0.4-0.1,0.5-0.2c0.1-0.2,0.1-0.5,0.1-0.7v-3c0-0.3,0-0.5-0.1-0.7
		c-0.1-0.1-0.3-0.2-0.5-0.2v-0.2L148.4,17.6z"/>
	<path class="st0" d="M154.5,17.6v0.7c0.2-0.3,0.5-0.5,0.8-0.7c0.3-0.1,0.5-0.2,0.8-0.2c0.6,0,1.2,0.4,1.4,1
		c0.2-0.3,0.5-0.5,0.9-0.7c0.3-0.1,0.6-0.2,0.9-0.2c0.3,0,0.6,0.1,0.9,0.3c0.2,0.2,0.4,0.4,0.4,0.6c0.1,0.4,0.1,0.8,0.1,1.2v2.2
		c0,0.3,0,0.5,0.1,0.8c0.1,0.1,0.3,0.2,0.5,0.2V23h-2.7v-0.2c0.2,0,0.4-0.1,0.5-0.2c0.1-0.2,0.1-0.5,0.1-0.7v-2.3
		c0-0.3,0-0.6-0.1-0.9c0-0.1-0.1-0.2-0.2-0.3c-0.1-0.1-0.2-0.1-0.3-0.1c-0.2,0-0.4,0.1-0.5,0.2c-0.2,0.1-0.4,0.3-0.5,0.5v2.9
		c0,0.2,0,0.5,0.1,0.7s0.3,0.2,0.5,0.2V23h-2.8v-0.2c0.1,0,0.2,0,0.4-0.1c0.1-0.1,0.1-0.1,0.2-0.2c0-0.2,0-0.4,0-0.6v-2.3
		c0-0.3,0-0.6,0-0.9c0-0.1-0.1-0.2-0.2-0.3c-0.1-0.1-0.2-0.1-0.3-0.1s-0.3,0-0.4,0.1c-0.2,0.2-0.4,0.4-0.6,0.6v2.9
		c0,0.3,0,0.5,0.1,0.7c0.1,0.1,0.3,0.2,0.5,0.2V23h-2.7v-0.2c0.2,0,0.4-0.1,0.5-0.2c0.1-0.2,0.1-0.5,0.1-0.7v-3c0-0.3,0-0.5-0.1-0.7
		c-0.1-0.1-0.3-0.2-0.5-0.2v-0.2L154.5,17.6z"/>
	<path class="st0" d="M166,20h-2.9c0,0.6,0.2,1.2,0.6,1.7c0.2,0.3,0.6,0.5,0.9,0.5c0.2,0,0.4-0.1,0.6-0.2c0.2-0.2,0.4-0.4,0.6-0.7
		l0.2,0.1c-0.2,0.5-0.5,0.9-0.9,1.2c-0.4,0.2-0.8,0.4-1.2,0.4c-0.7,0-1.4-0.3-1.8-0.9c-0.3-0.5-0.5-1.2-0.5-1.8
		c0-0.8,0.2-1.5,0.7-2.1c0.4-0.5,1-0.8,1.7-0.8c0.5,0,1.1,0.2,1.4,0.7C165.8,18.6,166,19.3,166,20L166,20z M164.6,19.6
		c0-0.4,0-0.8-0.1-1.2c-0.1-0.2-0.2-0.4-0.3-0.5s-0.2-0.1-0.3-0.1c-0.2,0-0.4,0.1-0.5,0.3c-0.2,0.4-0.4,0.9-0.3,1.4v0.2L164.6,19.6
		L164.6,19.6z"/>
	<path class="st0" d="M168.4,17.6v0.7c0.2-0.3,0.5-0.5,0.8-0.6c0.2-0.1,0.5-0.2,0.8-0.2s0.6,0.1,0.9,0.3c0.2,0.2,0.4,0.4,0.5,0.7
		c0.1,0.4,0.1,0.8,0.1,1.2v2.1c0,0.3,0,0.5,0.1,0.8c0.1,0.1,0.3,0.2,0.5,0.2V23h-2.7v-0.2c0.2,0,0.3-0.1,0.4-0.2
		c0.1-0.2,0.1-0.5,0.1-0.7v-2.4c0-0.3,0-0.5-0.1-0.8c0-0.1-0.1-0.2-0.2-0.3c-0.1-0.1-0.2-0.1-0.3-0.1c-0.3,0-0.6,0.2-0.9,0.7v2.8
		c0,0.3,0,0.5,0.1,0.8c0.1,0.1,0.2,0.2,0.4,0.2V23h-2.7v-0.2c0.2,0,0.4-0.1,0.5-0.2c0.1-0.2,0.1-0.5,0.1-0.7v-3c0-0.3,0-0.5-0.1-0.7
		c-0.1-0.1-0.3-0.2-0.5-0.2v-0.2L168.4,17.6z"/>
	<path class="st0" d="M174.2,15.6v1.9h1.3v0.6h-1.3v3.3c0,0.2,0,0.4,0,0.6c0,0.1,0.1,0.2,0.1,0.2c0.1,0,0.1,0.1,0.2,0.1
		c0.2,0,0.5-0.2,0.7-0.6l0.2,0.1c-0.2,0.7-0.8,1.1-1.4,1.1c-0.3,0-0.6-0.1-0.9-0.3c-0.2-0.2-0.4-0.4-0.4-0.6c0-0.3-0.1-0.7-0.1-1v-3
		h-0.7v-0.2c0.4-0.3,0.8-0.7,1.2-1.1c0.3-0.4,0.6-0.8,0.9-1.2L174.2,15.6z"/>
	<rect x="65.9" y="28" class="st0" width="130" height="1"/>
	<path class="st0" d="M72.8,33.4v2.4h-0.2c-0.1-0.6-0.4-1.1-0.8-1.5c-0.4-0.3-0.9-0.5-1.4-0.5c-0.4,0-0.8,0.1-1.2,0.4
		c-0.4,0.2-0.6,0.6-0.8,1C68.1,35.8,68,36.4,68,37s0.1,1.2,0.2,1.7c0.1,0.4,0.4,0.8,0.8,1.1s0.8,0.4,1.3,0.4c0.4,0,0.8-0.1,1.2-0.3
		c0.4-0.3,0.8-0.6,1.2-1v0.6c-0.3,0.4-0.8,0.7-1.2,0.9c-0.5,0.2-1,0.3-1.5,0.3c-0.7,0-1.4-0.1-2-0.4c-0.5-0.3-1-0.7-1.3-1.3
		c-0.3-0.5-0.5-1.2-0.5-1.8c0-0.7,0.2-1.3,0.5-1.9c0.3-0.6,0.8-1.1,1.4-1.4c0.6-0.3,1.2-0.5,1.9-0.5c0.5,0,1.1,0.1,1.6,0.3
		c0.2,0.1,0.4,0.2,0.6,0.2c0.1,0,0.2,0,0.3-0.1c0.1-0.1,0.2-0.2,0.2-0.4C72.7,33.4,72.8,33.4,72.8,33.4z"/>
	<path class="st0" d="M74.5,33.4c0.4,0,0.8,0.3,0.8,0.8l0,0c0,0.2-0.1,0.4-0.2,0.6c-0.2,0.1-0.4,0.2-0.6,0.2c-0.4,0-0.8-0.4-0.8-0.8
		l0,0c0-0.2,0.1-0.4,0.2-0.6C74.1,33.5,74.3,33.4,74.5,33.4z M75.2,35.7v3.8c0,0.2,0,0.5,0.1,0.7c0.1,0.1,0.3,0.2,0.5,0.2v0.2h-2.6
		v-0.2c0.2,0,0.4-0.1,0.5-0.2c0.1-0.2,0.1-0.4,0.1-0.6v-2.8c0-0.2,0-0.5-0.1-0.7c-0.1-0.1-0.3-0.2-0.5-0.2v-0.2H75.2z"/>
	<path class="st0" d="M78.2,40.7L76.6,37c-0.1-0.3-0.3-0.6-0.4-0.9C76,36,75.9,36,75.8,36v-0.2h2.6V36c-0.1,0-0.2,0-0.3,0
		C78,36.1,78,36.2,78,36.3c0,0.3,0.1,0.5,0.2,0.7l0.8,1.8l0.6-1.6c0.1-0.3,0.2-0.6,0.3-0.9c0-0.1,0-0.2-0.1-0.3s-0.3-0.1-0.4-0.1
		v-0.2H81v0.2c-0.1,0-0.3,0.1-0.4,0.2c-0.2,0.3-0.3,0.5-0.4,0.8l-1.6,3.8H78.2z"/>
	<path class="st0" d="M82.5,33.4c0.2,0,0.4,0.1,0.6,0.2c0.1,0.2,0.2,0.4,0.2,0.6c0,0.2-0.1,0.4-0.2,0.6c-0.3,0.3-0.8,0.3-1.1,0
		c-0.1-0.1-0.2-0.4-0.2-0.6c0-0.2,0.1-0.4,0.2-0.6C82,33.5,82.2,33.4,82.5,33.4z M83.2,35.7v3.8c0,0.2,0,0.5,0.1,0.7
		c0.1,0.1,0.3,0.2,0.5,0.2v0.2h-2.6v-0.2c0.2,0,0.4-0.1,0.5-0.2c0.1-0.2,0.1-0.4,0.1-0.6v-2.8c0-0.2,0-0.5-0.1-0.7
		c-0.1-0.1-0.3-0.2-0.5-0.2v-0.2H83.2z"/>
	<path class="st0" d="M86,33.6v6c0,0.2,0,0.5,0.1,0.7c0.1,0.1,0.3,0.2,0.5,0.2v0.2H84v-0.2c0.2,0,0.4-0.1,0.5-0.2
		c0.1-0.2,0.1-0.4,0.1-0.6v-5c0-0.2,0-0.4-0.1-0.6c-0.1-0.1-0.3-0.2-0.5-0.2v-0.2L86,33.6z"/>
	<path class="st0" d="M93.2,38.6h-2.5l-0.3,0.7c-0.1,0.2-0.1,0.4-0.2,0.6c0,0.2,0.1,0.3,0.2,0.4c0.2,0.1,0.4,0.1,0.7,0.1v0.2h-2.3
		v-0.2c0.2,0,0.5-0.1,0.6-0.3c0.2-0.3,0.4-0.6,0.6-1l2.5-5.6h0.1l2.5,5.7c0.1,0.4,0.3,0.7,0.6,1c0.1,0.1,0.3,0.2,0.5,0.2v0.2h-3.4
		v-0.2h0.1c0.2,0,0.4,0,0.6-0.1c0.1-0.1,0.1-0.1,0.1-0.2c0-0.1,0-0.1,0-0.2c0,0-0.1-0.2-0.2-0.4L93.2,38.6L93.2,38.6z M93,38.2
		l-1-2.4l-1.1,2.4H93z"/>
	<path class="st0" d="M97.6,40.7L96,37c-0.1-0.3-0.3-0.6-0.5-0.9C95.4,36,95.3,36,95.2,36v-0.2h2.6V36c-0.1,0-0.2,0-0.3,0.1
		c-0.1,0.1-0.1,0.2-0.1,0.3c0,0.3,0.1,0.5,0.2,0.7l0.8,1.8l0.6-1.6c0.1-0.3,0.2-0.6,0.3-0.9c0-0.1,0-0.2-0.1-0.3
		C99,36,98.8,36,98.7,36v-0.2h1.6V36c-0.1,0-0.3,0.1-0.4,0.2c-0.2,0.3-0.3,0.5-0.4,0.8l-1.6,3.7H97.6z"/>
	<path class="st0" d="M101.9,33.4c0.4,0,0.8,0.3,0.8,0.8l0,0c0,0.2-0.1,0.4-0.2,0.6c-0.1,0.1-0.4,0.2-0.6,0.2s-0.4-0.1-0.6-0.2
		c-0.1-0.1-0.2-0.4-0.2-0.6C101.1,33.8,101.5,33.4,101.9,33.4L101.9,33.4z M102.6,35.7v3.8c0,0.2,0,0.5,0.1,0.7
		c0.1,0.1,0.3,0.2,0.5,0.2v0.2h-2.6v-0.2c0.2,0,0.3-0.1,0.5-0.2c0.1-0.2,0.1-0.4,0.1-0.6v-2.8c0-0.2,0-0.5-0.1-0.7
		c-0.1-0.1-0.3-0.2-0.5-0.2v-0.2H102.6z"/>
	<path class="st0" d="M106.1,39.8c-0.4,0.4-1,0.7-1.6,0.8c-0.5,0-1-0.3-1-0.8v-0.1c0-0.4,0.2-0.8,0.5-1c0.6-0.5,1.3-0.9,2.1-1.2V37
		c0-0.2,0-0.5-0.1-0.7c0-0.1-0.1-0.2-0.2-0.2c-0.1-0.1-0.2-0.1-0.4-0.1c-0.2,0-0.4,0-0.6,0.2c-0.1,0-0.1,0.1-0.1,0.2
		c0,0.1,0.1,0.2,0.1,0.3c0.1,0.1,0.2,0.3,0.2,0.4c0,0.2-0.1,0.3-0.2,0.4c-0.1,0.1-0.3,0.2-0.5,0.2s-0.4-0.1-0.6-0.2
		c-0.1-0.1-0.2-0.3-0.2-0.5c0-0.3,0.1-0.5,0.3-0.7c0.2-0.2,0.5-0.4,0.8-0.5c0.4-0.1,0.7-0.2,1.1-0.2s0.8,0.1,1.1,0.3
		c0.2,0.2,0.4,0.4,0.5,0.6c0.1,0.3,0.1,0.7,0.1,1v1.9c0,0.1,0,0.3,0,0.4c0,0,0,0.1,0.1,0.1h0.1c0.1,0,0.2-0.1,0.3-0.2l0.2,0.1
		c-0.1,0.2-0.3,0.4-0.5,0.6c-0.2,0.1-0.4,0.2-0.6,0.2s-0.5-0.1-0.6-0.2C106.2,40.2,106.1,40,106.1,39.8L106.1,39.8z M106.1,39.5
		v-1.6c-0.4,0.2-0.7,0.5-0.9,0.8c-0.1,0.2-0.2,0.4-0.2,0.6c0,0.2,0.1,0.3,0.2,0.4c0.1,0.1,0.2,0.1,0.4,0.1
		C105.8,39.7,106,39.6,106.1,39.5z"/>
	<path class="st0" d="M110.2,34v1.8h1.1v0.5h-1.1v3c0,0.2,0,0.4,0,0.5s0.1,0.1,0.1,0.2c0.1,0,0.1,0.1,0.2,0.1c0.2,0,0.4-0.2,0.6-0.5
		l0.2,0.1c-0.2,0.6-0.7,1-1.3,1c-0.3,0-0.6-0.1-0.8-0.2c-0.2-0.1-0.3-0.3-0.4-0.6c0-0.3,0-0.6,0-1v-2.7h-0.6V36
		c0.4-0.3,0.8-0.6,1.1-1c0.3-0.3,0.5-0.7,0.7-1.1h0.2V34z"/>
	<path class="st0" d="M113,33.4c0.4,0,0.8,0.3,0.8,0.8l0,0c0,0.2-0.1,0.4-0.2,0.6c-0.3,0.3-0.8,0.3-1.1,0c-0.1-0.1-0.2-0.4-0.2-0.6
		c0-0.2,0.1-0.4,0.2-0.6C112.6,33.5,112.8,33.4,113,33.4z M113.7,35.7v3.8c0,0.2,0,0.5,0.1,0.7c0.1,0.1,0.3,0.2,0.5,0.2v0.2h-2.6
		v-0.2c0.2,0,0.4-0.1,0.5-0.2c0.1-0.2,0.1-0.4,0.1-0.6v-2.8c0-0.2,0-0.5-0.1-0.7c-0.1-0.1-0.3-0.2-0.5-0.2v-0.2H113.7z"/>
	<path class="st0" d="M116.7,35.6c0.4,0,0.8,0.1,1.2,0.3c0.4,0.2,0.6,0.5,0.8,0.9c0.2,0.4,0.3,0.9,0.3,1.3c0,0.6-0.2,1.2-0.5,1.7
		c-0.4,0.6-1,0.9-1.7,0.8c-0.7,0-1.3-0.2-1.7-0.8c-0.8-1.1-0.8-2.5,0-3.6C115.5,35.9,116.1,35.6,116.7,35.6L116.7,35.6z M116.7,35.9
		c-0.2,0-0.3,0.1-0.4,0.2c-0.2,0.2-0.3,0.5-0.2,0.8c0,0.4-0.1,0.9-0.1,1.6c0,0.3,0,0.7,0.1,1c0,0.2,0.1,0.4,0.2,0.6
		c0.1,0.1,0.3,0.2,0.4,0.2s0.3,0,0.4-0.1s0.2-0.3,0.3-0.5c0.1-0.7,0.1-1.3,0.1-2c0-0.4,0-0.8-0.1-1.2c0-0.2-0.1-0.4-0.3-0.5
		C117,35.9,116.8,35.9,116.7,35.9L116.7,35.9z"/>
	<path class="st0" d="M121.3,35.7v0.6c0.2-0.2,0.4-0.4,0.7-0.6c0.2-0.1,0.5-0.2,0.7-0.2c0.3,0,0.6,0.1,0.8,0.3
		c0.2,0.2,0.3,0.4,0.4,0.7c0.1,0.4,0.1,0.8,0.1,1.1v1.9c0,0.2,0,0.5,0.1,0.7c0.1,0.1,0.3,0.2,0.4,0.2v0.2h-2.4v-0.2
		c0.2,0,0.3-0.1,0.4-0.2c0.1-0.2,0.1-0.4,0.1-0.6v-2.1c0-0.2,0-0.5,0-0.8c0-0.1-0.1-0.2-0.2-0.2c-0.1-0.1-0.2-0.1-0.2-0.1
		c-0.3,0-0.6,0.2-0.8,0.6v2.6c0,0.2,0,0.5,0.1,0.7c0.1,0.1,0.2,0.2,0.4,0.2v0.2h-2.4v-0.2c0.2,0,0.3-0.1,0.4-0.2
		c0.1-0.2,0.1-0.4,0.1-0.7v-2.7c0-0.2,0-0.5-0.1-0.7c-0.1-0.1-0.3-0.2-0.4-0.2v-0.2L121.3,35.7L121.3,35.7z"/>
	<path class="st0" d="M131.9,33.4l0.1,2.3h-0.2c-0.1-0.5-0.3-1-0.7-1.4c-0.3-0.3-0.8-0.5-1.3-0.5c-0.3,0-0.6,0.1-0.8,0.3
		s-0.3,0.4-0.3,0.7c0,0.1,0,0.3,0.1,0.4c0.1,0.2,0.3,0.4,0.5,0.5c0.4,0.2,0.7,0.4,1.1,0.6c0.6,0.3,1.2,0.7,1.7,1.1
		c0.3,0.4,0.4,0.8,0.4,1.2c0,0.6-0.2,1.1-0.7,1.5s-1.1,0.7-1.7,0.6c-0.2,0-0.4,0-0.6-0.1c-0.3-0.1-0.5-0.1-0.7-0.2
		c-0.1-0.1-0.3-0.1-0.4-0.1c-0.1,0-0.2,0-0.3,0.1s-0.2,0.2-0.2,0.3h-0.2v-2.6h0.2c0.1,0.6,0.4,1.2,0.9,1.7c0.4,0.4,0.9,0.6,1.4,0.6
		c0.3,0,0.7-0.1,0.9-0.3s0.3-0.4,0.3-0.7c0-0.2,0-0.3-0.1-0.5s-0.2-0.3-0.4-0.4c-0.3-0.2-0.6-0.4-0.9-0.5c-0.5-0.2-0.9-0.5-1.4-0.8
		c-0.3-0.2-0.5-0.5-0.6-0.7c-0.2-0.3-0.2-0.6-0.2-0.9c0-0.5,0.2-1.1,0.6-1.4c0.4-0.4,1-0.6,1.5-0.6c0.2,0,0.5,0,0.7,0.1
		s0.4,0.1,0.6,0.2c0.2,0.1,0.3,0.1,0.5,0.2c0.1,0,0.2,0,0.2-0.1c0.1-0.1,0.1-0.3,0.1-0.4h-0.1V33.4z"/>
	<path class="st0" d="M135.5,39.8c-0.4,0.4-1,0.7-1.6,0.8c-0.3,0-0.5-0.1-0.7-0.3s-0.3-0.4-0.3-0.7c0-0.4,0.2-0.8,0.5-1
		c0.6-0.5,1.3-0.9,2.1-1.2V37c0-0.2,0-0.5-0.1-0.7c0-0.1-0.1-0.2-0.2-0.2c-0.1-0.1-0.2-0.1-0.4-0.1s-0.4,0-0.6,0.2
		c-0.1,0-0.1,0.1-0.1,0.2c0,0.1,0.1,0.2,0.1,0.3c0.1,0.1,0.2,0.3,0.2,0.4c0,0.2-0.1,0.3-0.2,0.4c-0.1,0.1-0.3,0.2-0.5,0.2
		s-0.4-0.1-0.5-0.2c-0.1-0.1-0.2-0.3-0.3-0.4c0-0.3,0.1-0.5,0.3-0.7s0.5-0.4,0.8-0.5c0.4-0.1,0.7-0.2,1.1-0.2c0.4,0,0.8,0.1,1.1,0.3
		c0.2,0.1,0.4,0.4,0.5,0.6c0.1,0.3,0.1,0.7,0.1,1v1.9c0,0.1,0,0.3,0,0.4c0,0,0,0.1,0.1,0.1h0.1c0.1,0,0.2-0.1,0.3-0.2l0.1,0.1
		c-0.1,0.2-0.3,0.4-0.5,0.6c-0.2,0.1-0.4,0.2-0.6,0.2c-0.2,0-0.5-0.1-0.6-0.2C135.5,40.2,135.4,40,135.5,39.8L135.5,39.8z
		 M135.5,39.5v-1.6c-0.4,0.2-0.7,0.5-0.9,0.8c-0.1,0.2-0.2,0.4-0.2,0.6c0,0.2,0.1,0.3,0.2,0.4c0.1,0.1,0.2,0.1,0.4,0.1
		C135.1,39.7,135.3,39.6,135.5,39.5L135.5,39.5z"/>
	<path class="st0" d="M139.9,36.2v3.3c0,0.2,0,0.4,0.1,0.6c0.2,0.2,0.4,0.2,0.6,0.2v0.2h-2.8v-0.2c0.2,0,0.3,0,0.4-0.1
		c0.1,0,0.2-0.1,0.2-0.2c0-0.2,0.1-0.3,0.1-0.5v-3.3h-0.7v-0.5h0.7v-0.6c0-0.5,0.2-0.9,0.6-1.2c0.4-0.3,0.9-0.5,1.5-0.5
		c0.3,0,0.7,0.1,0.9,0.2c0.2,0.1,0.3,0.3,0.3,0.5s-0.1,0.3-0.2,0.4c-0.1,0.1-0.3,0.2-0.5,0.2s-0.3,0-0.4-0.1
		c-0.1-0.1-0.1-0.2-0.1-0.3s0-0.1,0-0.2c0-0.1,0-0.1,0-0.2c0-0.1,0-0.1-0.1-0.2c-0.1,0-0.1-0.1-0.2-0.1c-0.1,0-0.2,0-0.3,0.1
		s-0.1,0.3-0.1,0.4v1.5h0.7v0.5L139.9,36.2L139.9,36.2z"/>
	<path class="st0" d="M145,38h-2.6c0,0.5,0.2,1.1,0.5,1.5c0.2,0.3,0.5,0.4,0.9,0.4c0.2,0,0.4-0.1,0.6-0.2c0.2-0.2,0.4-0.4,0.6-0.6
		l0.2,0.1c-0.2,0.4-0.5,0.8-0.9,1.1c-0.9,0.6-2.1,0.4-2.7-0.5c-0.3-0.5-0.5-1.1-0.4-1.7c0-0.7,0.2-1.4,0.6-1.9
		c0.4-0.5,0.9-0.7,1.5-0.7c0.5,0,1,0.2,1.3,0.6C144.8,36.7,145,37.4,145,38z M143.7,37.7c0-0.4,0-0.8-0.1-1.1c0-0.2-0.1-0.3-0.3-0.5
		c-0.1-0.1-0.2-0.1-0.3-0.1c-0.2,0-0.4,0.1-0.4,0.3c-0.2,0.4-0.3,0.8-0.3,1.3v0.2h1.4V37.7z"/>
	<path class="st0" d="M147.2,34v1.8h1.1v0.5h-1.1v3c0,0.2,0,0.4,0,0.5s0.1,0.2,0.1,0.2c0.1,0,0.1,0.1,0.2,0.1c0.2,0,0.4-0.2,0.6-0.5
		l0.2,0.1c-0.2,0.6-0.7,1-1.4,1c-0.3,0-0.6-0.1-0.8-0.2c-0.2-0.1-0.3-0.3-0.4-0.6c0-0.3-0.1-0.6-0.1-1v-2.7H145V36
		c0.4-0.3,0.8-0.6,1.1-1c0.3-0.3,0.6-0.7,0.8-1.1h0.3V34z"/>
	<path class="st0" d="M151.2,40.7l-1.6-3.6c-0.1-0.4-0.3-0.7-0.5-1c-0.1-0.1-0.3-0.2-0.4-0.3v-0.2h2.6v0.2c-0.1,0-0.3,0-0.4,0.1
		c-0.1,0.1-0.1,0.1-0.1,0.2c0,0.3,0.1,0.5,0.2,0.8l0.8,1.9l0.6-1.5c0.2-0.3,0.3-0.7,0.3-1.1c0-0.1,0-0.2-0.1-0.3s-0.3-0.1-0.4-0.1
		v-0.2h1.6v0.2c-0.1,0-0.3,0.1-0.4,0.2c-0.2,0.3-0.4,0.7-0.5,1.1l-1.4,3.6c-0.2,0.6-0.5,1.1-0.8,1.7c-0.2,0.3-0.5,0.4-0.9,0.4
		c-0.3,0-0.5-0.1-0.7-0.2c-0.2-0.2-0.3-0.4-0.3-0.6c0-0.2,0.1-0.4,0.2-0.5c0.1-0.1,0.3-0.2,0.4-0.2c0.2,0,0.3,0,0.4,0.2
		c0.1,0.1,0.2,0.3,0.2,0.5c0,0.1,0,0.2,0,0.3h0.1c0.1,0,0.2-0.1,0.3-0.2c0.2-0.3,0.4-0.6,0.5-1L151.2,40.7L151.2,40.7z"/>
	<path class="st0" d="M158.5,38.6H156l-0.3,0.7c-0.1,0.2-0.1,0.4-0.1,0.6c0,0.2,0.1,0.3,0.2,0.4c0.2,0.1,0.4,0.1,0.7,0.1v0.2h-2.3
		v-0.2c0.2,0,0.5-0.1,0.6-0.3c0.2-0.3,0.4-0.6,0.6-1l2.5-5.6h0.1l2.5,5.7c0.1,0.4,0.3,0.7,0.6,1c0.1,0.1,0.3,0.2,0.5,0.2v0.2h-3.4
		v-0.2h0.1c0.2,0,0.4,0,0.6-0.1c0.1-0.1,0.1-0.1,0.1-0.2c0-0.1,0-0.1,0-0.2c0,0-0.1-0.2-0.2-0.4L158.5,38.6L158.5,38.6z M158.3,38.2
		l-1.1-2.4l-1.1,2.4H158.3z"/>
	<path class="st0" d="M165.9,35.7v3.8c0,0.2,0,0.5,0.1,0.7c0.1,0.1,0.3,0.2,0.4,0.2v0.2h-2V40c-0.2,0.2-0.4,0.4-0.7,0.6
		c-0.2,0.1-0.5,0.2-0.8,0.2s-0.5-0.1-0.7-0.2c-0.2-0.1-0.4-0.4-0.4-0.6c-0.1-0.4-0.1-0.8-0.1-1.2v-1.9c0-0.2,0-0.5-0.1-0.7
		c-0.1-0.1-0.3-0.2-0.4-0.2v-0.2h2V39c0,0.2,0,0.4,0,0.7c0,0.1,0.1,0.2,0.2,0.2c0.1,0.1,0.2,0.1,0.2,0.1c0.1,0,0.2,0,0.3-0.1
		c0.2-0.2,0.4-0.3,0.5-0.5v-2.6c0-0.2,0-0.5-0.1-0.7c-0.1-0.1-0.3-0.2-0.4-0.2v-0.2H165.9z"/>
	<path class="st0" d="M168.6,34v1.8h1.1v0.5h-1.1v3c0,0.2,0,0.4,0,0.5s0.1,0.1,0.1,0.2c0.1,0,0.2,0,0.2,0c0.2,0,0.4-0.2,0.6-0.5
		l0.1,0.1c-0.2,0.6-0.7,1-1.4,1c-0.3,0-0.6-0.1-0.8-0.2c-0.2-0.1-0.3-0.3-0.4-0.6c-0.1-0.3-0.1-0.6-0.1-1v-2.6h-0.6V36
		c0.4-0.3,0.8-0.6,1.1-1c0.3-0.3,0.6-0.7,0.8-1.1L168.6,34z"/>
	<path class="st0" d="M172.1,33.6v2.8c0.2-0.2,0.5-0.4,0.7-0.6c0.2-0.1,0.4-0.2,0.7-0.2s0.6,0.1,0.8,0.3c0.2,0.1,0.4,0.4,0.4,0.6
		c0.1,0.4,0.1,0.8,0.1,1.2v1.9c0,0.2,0,0.5,0.1,0.7c0.1,0.1,0.3,0.2,0.4,0.2v0.2h-2.4v-0.2c0.2,0,0.3-0.1,0.4-0.2
		c0.1-0.2,0.1-0.4,0.1-0.7v-2.1c0-0.3,0-0.5-0.1-0.8c0-0.1-0.1-0.2-0.2-0.2c-0.1-0.1-0.2-0.1-0.2-0.1c-0.1,0-0.3,0.1-0.4,0.2
		c-0.2,0.1-0.3,0.3-0.4,0.5v2.6c0,0.2,0,0.4,0.1,0.6c0.1,0.1,0.2,0.2,0.4,0.2v0.2h-2.4v-0.2c0.2,0,0.3-0.1,0.4-0.2
		c0.1-0.2,0.1-0.4,0.1-0.7v-4.9c0-0.2,0-0.5-0.1-0.7c-0.1-0.1-0.3-0.2-0.4-0.2v-0.2C170.2,33.6,172.1,33.6,172.1,33.6z"/>
	<path class="st0" d="M177.8,35.6c0.4,0,0.8,0.1,1.2,0.3s0.7,0.5,0.8,0.9c0.2,0.4,0.3,0.9,0.3,1.3c0,0.6-0.2,1.2-0.5,1.7
		c-0.4,0.6-1.1,0.9-1.7,0.8c-0.7,0-1.3-0.2-1.7-0.8c-0.4-0.5-0.6-1.1-0.6-1.8s0.2-1.3,0.6-1.8C176.5,35.9,177.1,35.6,177.8,35.6z
		 M177.8,35.9c-0.2,0-0.3,0.1-0.5,0.2c-0.2,0.2-0.2,0.5-0.2,0.8c0,0.4-0.1,0.9-0.1,1.6c0,0.3,0,0.7,0.1,1c0,0.2,0.1,0.4,0.2,0.6
		c0.1,0.1,0.3,0.2,0.4,0.2c0.1,0,0.3,0,0.4-0.1c0.1-0.1,0.2-0.3,0.3-0.5c0.1-0.7,0.1-1.3,0.1-2c0-0.4,0-0.8-0.1-1.2
		c0-0.2-0.1-0.4-0.3-0.5C178,35.9,177.9,35.9,177.8,35.9L177.8,35.9z"/>
	<path class="st0" d="M182.2,35.7v1.1c0.2-0.4,0.5-0.7,0.8-1c0.2-0.2,0.4-0.2,0.7-0.2c0.2,0,0.3,0.1,0.4,0.2
		c0.1,0.1,0.2,0.3,0.2,0.5s-0.1,0.4-0.2,0.5c-0.1,0.1-0.2,0.2-0.4,0.2s-0.3-0.1-0.5-0.2l-0.2-0.2l0,0c-0.1,0-0.2,0-0.3,0.1
		c-0.2,0.1-0.3,0.3-0.3,0.5c-0.1,0.4-0.2,0.7-0.2,1.1v1.4c0,0.1,0,0.3,0,0.4c0,0.1,0.1,0.2,0.2,0.2c0.1,0.1,0.3,0.1,0.4,0.1v0.2
		h-2.6v-0.2c0.2,0,0.3-0.1,0.4-0.2c0.1-0.2,0.1-0.5,0.1-0.8v-2.7c0-0.2,0-0.4-0.1-0.5c0-0.1-0.1-0.2-0.1-0.2
		c-0.1-0.1-0.2-0.1-0.4-0.1v-0.2L182.2,35.7z"/>
	<path class="st0" d="M186,33.4c0.4,0,0.8,0.3,0.8,0.8l0,0c0,0.2-0.1,0.4-0.2,0.6c-0.3,0.3-0.8,0.3-1.1,0c-0.2-0.1-0.2-0.3-0.2-0.6
		C185.2,33.8,185.6,33.4,186,33.4L186,33.4z M186.7,35.7v3.8c0,0.2,0,0.5,0.1,0.7c0.1,0.1,0.3,0.2,0.5,0.2v0.2h-2.6v-0.2
		c0.2,0,0.4-0.1,0.5-0.2c0.1-0.2,0.1-0.4,0.1-0.6v-2.8c0-0.2,0-0.5-0.1-0.7c-0.1-0.1-0.3-0.2-0.5-0.2v-0.2H186.7z"/>
	<path class="st0" d="M189.4,34v1.8h1.1v0.5h-1.1v3c0,0.2,0,0.4,0,0.5s0.1,0.1,0.1,0.2c0.1,0,0.1,0.1,0.2,0.1c0.2,0,0.4-0.2,0.6-0.5
		l0.2,0.1c-0.2,0.6-0.7,1-1.4,1c-0.3,0-0.6-0.1-0.8-0.2c-0.2-0.1-0.3-0.3-0.4-0.6c0-0.3,0-0.6,0-1v-2.7h-0.6V36
		c0.4-0.3,0.8-0.6,1.1-1c0.3-0.3,0.6-0.7,0.8-1.1L189.4,34z"/>
	<path class="st0" d="M193.4,40.7l-1.6-3.6c-0.1-0.4-0.3-0.7-0.5-1c-0.1-0.1-0.3-0.2-0.4-0.3v-0.2h2.6v0.2c-0.1,0-0.3,0-0.4,0.1
		C193,36,193,36,193,36.1c0,0.3,0.1,0.5,0.3,0.8l0.8,1.9l0.6-1.5c0.2-0.3,0.3-0.7,0.3-1.1c0-0.1,0-0.2-0.1-0.3s-0.3-0.1-0.4-0.1
		v-0.2h1.6v0.2c-0.1,0-0.3,0.1-0.4,0.2c-0.2,0.3-0.4,0.7-0.5,1.1l-1.4,3.6c-0.2,0.6-0.4,1.1-0.7,1.7c-0.2,0.3-0.5,0.4-0.9,0.4
		c-0.3,0-0.5-0.1-0.7-0.2c-0.2-0.1-0.3-0.4-0.3-0.6c0-0.2,0.1-0.4,0.2-0.5c0.1-0.1,0.3-0.2,0.5-0.2s0.3,0,0.4,0.2
		c0.1,0.1,0.2,0.3,0.2,0.5c0,0.1,0,0.2,0.1,0.3h0.1c0.1,0,0.2-0.1,0.3-0.2c0.2-0.3,0.4-0.6,0.5-1L193.4,40.7L193.4,40.7z"/>
</g>
</svg>
